<mxfile host="app.diagrams.net" agent="Mozilla/5.0 (X11; Ubuntu; Linux x86_64; rv:135.0) Gecko/20100101 Firefox/135.0" version="26.2.14">
  <diagram name="Page-1" id="M9bV2pjpJCK4cmks5HS0">
    <mxGraphModel dx="983" dy="550" grid="1" gridSize="10" guides="1" tooltips="1" connect="1" arrows="1" fold="1" page="1" pageScale="1" pageWidth="1654" pageHeight="2336" math="0" shadow="0">
      <root>
        <mxCell id="0" />
        <mxCell id="1" parent="0" />
        <mxCell id="pJ6wFI3J2P7B_1asHL6m-31" style="edgeStyle=orthogonalEdgeStyle;rounded=0;orthogonalLoop=1;jettySize=auto;html=1;exitX=0;exitY=0.5;exitDx=0;exitDy=0;entryX=1;entryY=0.3333333333333333;entryDx=0;entryDy=0;entryPerimeter=0;strokeColor=none;" edge="1" parent="1" source="pJ6wFI3J2P7B_1asHL6m-4" target="pJ6wFI3J2P7B_1asHL6m-1">
          <mxGeometry relative="1" as="geometry" />
        </mxCell>
        <mxCell id="pJ6wFI3J2P7B_1asHL6m-56" value="" style="rounded=0;whiteSpace=wrap;html=1;fillColor=#FFE6CC;" vertex="1" parent="1">
          <mxGeometry x="490" y="760" width="500" height="360" as="geometry" />
        </mxCell>
        <mxCell id="pJ6wFI3J2P7B_1asHL6m-40" value="Receive maintenance alerts" style="ellipse;whiteSpace=wrap;html=1;" vertex="1" parent="1">
          <mxGeometry x="845" y="1020" width="130" height="60" as="geometry" />
        </mxCell>
        <mxCell id="pJ6wFI3J2P7B_1asHL6m-39" value="Configure off-peak discounts" style="ellipse;whiteSpace=wrap;html=1;" vertex="1" parent="1">
          <mxGeometry x="750" y="970" width="120" height="60" as="geometry" />
        </mxCell>
        <mxCell id="pJ6wFI3J2P7B_1asHL6m-27" value="Monitor daily operations" style="ellipse;whiteSpace=wrap;html=1;" vertex="1" parent="1">
          <mxGeometry x="850" y="920" width="120" height="60" as="geometry" />
        </mxCell>
        <mxCell id="pJ6wFI3J2P7B_1asHL6m-26" value="Update station availability" style="ellipse;whiteSpace=wrap;html=1;" vertex="1" parent="1">
          <mxGeometry x="767" y="860" width="120" height="60" as="geometry" />
        </mxCell>
        <mxCell id="pJ6wFI3J2P7B_1asHL6m-25" value="Register charging station" style="ellipse;whiteSpace=wrap;html=1;" vertex="1" parent="1">
          <mxGeometry x="840" y="800" width="120" height="60" as="geometry" />
        </mxCell>
        <mxCell id="pJ6wFI3J2P7B_1asHL6m-4" value="&lt;div&gt;Search for&amp;nbsp;&lt;/div&gt;&lt;div&gt;chargers&lt;/div&gt;" style="ellipse;whiteSpace=wrap;html=1;" vertex="1" parent="1">
          <mxGeometry x="520" y="790" width="120" height="60" as="geometry" />
        </mxCell>
        <mxCell id="pJ6wFI3J2P7B_1asHL6m-23" value="Book time slots" style="ellipse;whiteSpace=wrap;html=1;" vertex="1" parent="1">
          <mxGeometry x="620" y="840" width="120" height="60" as="geometry" />
        </mxCell>
        <mxCell id="pJ6wFI3J2P7B_1asHL6m-24" value="Charge vehicle" style="ellipse;whiteSpace=wrap;html=1;" vertex="1" parent="1">
          <mxGeometry x="520" y="890" width="120" height="60" as="geometry" />
        </mxCell>
        <mxCell id="pJ6wFI3J2P7B_1asHL6m-28" value="Make payments" style="ellipse;whiteSpace=wrap;html=1;" vertex="1" parent="1">
          <mxGeometry x="610" y="940" width="120" height="60" as="geometry" />
        </mxCell>
        <mxCell id="pJ6wFI3J2P7B_1asHL6m-29" value="Plan trips" style="ellipse;whiteSpace=wrap;html=1;" vertex="1" parent="1">
          <mxGeometry x="520" y="990" width="120" height="60" as="geometry" />
        </mxCell>
        <mxCell id="pJ6wFI3J2P7B_1asHL6m-45" value="" style="endArrow=none;html=1;rounded=0;entryX=1;entryY=0.5;entryDx=0;entryDy=0;startFill=0;" edge="1" parent="1" target="pJ6wFI3J2P7B_1asHL6m-40">
          <mxGeometry width="50" height="50" relative="1" as="geometry">
            <mxPoint x="1040" y="990" as="sourcePoint" />
            <mxPoint x="1015" y="1090" as="targetPoint" />
          </mxGeometry>
        </mxCell>
        <mxCell id="pJ6wFI3J2P7B_1asHL6m-46" value="" style="endArrow=none;html=1;rounded=0;entryX=1;entryY=0.5;entryDx=0;entryDy=0;startFill=0;" edge="1" parent="1" target="pJ6wFI3J2P7B_1asHL6m-39">
          <mxGeometry width="50" height="50" relative="1" as="geometry">
            <mxPoint x="1040" y="990" as="sourcePoint" />
            <mxPoint x="985" y="1060" as="targetPoint" />
          </mxGeometry>
        </mxCell>
        <mxCell id="pJ6wFI3J2P7B_1asHL6m-47" value="" style="endArrow=none;html=1;rounded=0;entryX=1;entryY=0.5;entryDx=0;entryDy=0;startFill=0;" edge="1" parent="1" target="pJ6wFI3J2P7B_1asHL6m-27">
          <mxGeometry width="50" height="50" relative="1" as="geometry">
            <mxPoint x="1040" y="990" as="sourcePoint" />
            <mxPoint x="880" y="1010" as="targetPoint" />
          </mxGeometry>
        </mxCell>
        <mxCell id="pJ6wFI3J2P7B_1asHL6m-48" value="" style="endArrow=none;html=1;rounded=0;entryX=1;entryY=0.5;entryDx=0;entryDy=0;startFill=0;" edge="1" parent="1" target="pJ6wFI3J2P7B_1asHL6m-26">
          <mxGeometry width="50" height="50" relative="1" as="geometry">
            <mxPoint x="1040" y="990" as="sourcePoint" />
            <mxPoint x="890" y="1020" as="targetPoint" />
            <Array as="points">
              <mxPoint x="970" y="890" />
            </Array>
          </mxGeometry>
        </mxCell>
        <mxCell id="pJ6wFI3J2P7B_1asHL6m-49" value="" style="endArrow=none;html=1;rounded=0;entryX=1;entryY=0.5;entryDx=0;entryDy=0;startFill=0;" edge="1" parent="1" target="pJ6wFI3J2P7B_1asHL6m-25">
          <mxGeometry width="50" height="50" relative="1" as="geometry">
            <mxPoint x="1040" y="990" as="sourcePoint" />
            <mxPoint x="900" y="1030" as="targetPoint" />
          </mxGeometry>
        </mxCell>
        <mxCell id="pJ6wFI3J2P7B_1asHL6m-2" value="Station Operator" style="shape=umlActor;verticalLabelPosition=bottom;verticalAlign=top;html=1;outlineConnect=0;" vertex="1" parent="1">
          <mxGeometry x="1070" y="930" width="30" height="60" as="geometry" />
        </mxCell>
        <mxCell id="pJ6wFI3J2P7B_1asHL6m-37" value="" style="endArrow=none;html=1;rounded=0;entryX=0;entryY=0.5;entryDx=0;entryDy=0;startFill=0;" edge="1" parent="1" target="pJ6wFI3J2P7B_1asHL6m-29">
          <mxGeometry width="50" height="50" relative="1" as="geometry">
            <mxPoint x="440" y="960" as="sourcePoint" />
            <mxPoint x="580" y="860" as="targetPoint" />
          </mxGeometry>
        </mxCell>
        <mxCell id="pJ6wFI3J2P7B_1asHL6m-36" value="" style="endArrow=none;html=1;rounded=0;entryX=0;entryY=0.5;entryDx=0;entryDy=0;startFill=0;" edge="1" parent="1" target="pJ6wFI3J2P7B_1asHL6m-28">
          <mxGeometry width="50" height="50" relative="1" as="geometry">
            <mxPoint x="440" y="960" as="sourcePoint" />
            <mxPoint x="570" y="850" as="targetPoint" />
          </mxGeometry>
        </mxCell>
        <mxCell id="pJ6wFI3J2P7B_1asHL6m-35" value="" style="endArrow=none;html=1;rounded=0;entryX=0;entryY=0.5;entryDx=0;entryDy=0;startFill=0;" edge="1" parent="1" target="pJ6wFI3J2P7B_1asHL6m-24">
          <mxGeometry width="50" height="50" relative="1" as="geometry">
            <mxPoint x="440" y="960" as="sourcePoint" />
            <mxPoint x="560" y="840" as="targetPoint" />
          </mxGeometry>
        </mxCell>
        <mxCell id="pJ6wFI3J2P7B_1asHL6m-34" value="" style="endArrow=none;html=1;rounded=0;entryX=0;entryY=0.5;entryDx=0;entryDy=0;startFill=0;" edge="1" parent="1" target="pJ6wFI3J2P7B_1asHL6m-23">
          <mxGeometry width="50" height="50" relative="1" as="geometry">
            <mxPoint x="440" y="960" as="sourcePoint" />
            <mxPoint x="550" y="830" as="targetPoint" />
            <Array as="points">
              <mxPoint x="540" y="870" />
            </Array>
          </mxGeometry>
        </mxCell>
        <mxCell id="pJ6wFI3J2P7B_1asHL6m-32" value="" style="endArrow=none;html=1;rounded=0;entryX=0;entryY=0.5;entryDx=0;entryDy=0;startFill=0;" edge="1" parent="1" target="pJ6wFI3J2P7B_1asHL6m-4">
          <mxGeometry width="50" height="50" relative="1" as="geometry">
            <mxPoint x="440" y="960" as="sourcePoint" />
            <mxPoint x="390" y="1050" as="targetPoint" />
          </mxGeometry>
        </mxCell>
        <mxCell id="pJ6wFI3J2P7B_1asHL6m-1" value="EV Driver" style="shape=umlActor;verticalLabelPosition=bottom;verticalAlign=top;html=1;outlineConnect=0;" vertex="1" parent="1">
          <mxGeometry x="400" y="930" width="30" height="60" as="geometry" />
        </mxCell>
        <mxCell id="pJ6wFI3J2P7B_1asHL6m-51" value="" style="endArrow=classic;dashed=1;html=1;rounded=0;entryX=1;entryY=0.5;entryDx=0;entryDy=0;exitX=0;exitY=0.5;exitDx=0;exitDy=0;endFill=1;" edge="1" parent="1" source="pJ6wFI3J2P7B_1asHL6m-25" target="pJ6wFI3J2P7B_1asHL6m-4">
          <mxGeometry width="50" height="50" relative="1" as="geometry">
            <mxPoint x="730" y="830" as="sourcePoint" />
            <mxPoint x="780" y="780" as="targetPoint" />
          </mxGeometry>
        </mxCell>
        <mxCell id="pJ6wFI3J2P7B_1asHL6m-52" value="" style="endArrow=classic;dashed=1;html=1;rounded=0;entryX=1;entryY=0.5;entryDx=0;entryDy=0;exitX=0;exitY=0.5;exitDx=0;exitDy=0;endFill=1;" edge="1" parent="1" source="pJ6wFI3J2P7B_1asHL6m-26" target="pJ6wFI3J2P7B_1asHL6m-23">
          <mxGeometry width="50" height="50" relative="1" as="geometry">
            <mxPoint x="790" y="1100" as="sourcePoint" />
            <mxPoint x="590" y="1090" as="targetPoint" />
          </mxGeometry>
        </mxCell>
        <mxCell id="pJ6wFI3J2P7B_1asHL6m-53" value="" style="endArrow=classic;dashed=1;html=1;rounded=0;entryX=1;entryY=0.5;entryDx=0;entryDy=0;exitX=0;exitY=0.5;exitDx=0;exitDy=0;endFill=1;" edge="1" parent="1" source="pJ6wFI3J2P7B_1asHL6m-39" target="pJ6wFI3J2P7B_1asHL6m-28">
          <mxGeometry width="50" height="50" relative="1" as="geometry">
            <mxPoint x="790" y="1110" as="sourcePoint" />
            <mxPoint x="590" y="1100" as="targetPoint" />
          </mxGeometry>
        </mxCell>
        <mxCell id="pJ6wFI3J2P7B_1asHL6m-57" value="" style="shape=image;verticalLabelPosition=bottom;labelBackgroundColor=default;verticalAlign=top;aspect=fixed;imageAspect=0;image=data:image/png,iVBORw0KGgoAAAANSUhEUgAAAcIAAAClCAYAAADPnv0TAAAgAElEQVR4Xuy9B4BcdfU9/ubNK9NnZ3vPpkAKCIGgCIKIKCJVSiiK8KUFBaUXkxAMKUAACYJIkaYQQCJFCKCoYEH/oCAEpKeX7XV2+mv/cz5vBpaYsrvZjfBjRsO2N2/e+7zP53PuPffcez1S8VUcgeIIFEegOALFEfgMj4DnM3zvxVsvjkBxBIojUByB4ghIRSAsToLiCBRHoDgCxRH4TI9AEQg/04+/ePPFESiOQHEEiiNQBMLiHCiOQHEEiiNQHIHP9AgUgfAz/fiLN18cgeIIFEegOAJFICzOgeIIFEegOALFEfhMj0ARCD/Tj79488URKI5AcQSKI1AEwuIcKI5AcQSKI1Acgc/0CBSB8DP9+Is3XxyB4ggUR6A4AkUgLM6B4ggUR6A4AsUR+EyPQBEIP9OPv3jzxREojkBxBIojUATC4hwojkBxBIojUByBz/QIFIHwM/34izdfHIHiCBRHoDgCRSAszoHiCBRHoDgCxRH4TI9AEQg/04+/ePPFESiOQHEEiiNQBMLiHCiOwGZGYNq0aWpXlxUsKZGk7u5uT2lpqcOvPNTn83n51bZtT02NJJV5Q8bjL7wW93g8duFUziOPeN9c+UIkoDgqfxfUs46VCODv/ZKsGR+uu1bN9ChJ1ayRfebaEiUzbcYdJs7jFB9KcQSKI7DjRqAIhDturIuf9CkZgblz5yq33XbbqboeONI0TZ972TbwScI/jyxJHtnr9Tqyk/NG/JIsWVKysrLpxj/84x/PFW7xrcuOPa/Wax/jSGlNsnOOKeVsD6BTcQxHAsx5HC/+q0i6P+zp6e3LKIqaNGWrM2uYzWp57dou2f+uURF8Y6+z70x9SoateJnFEfjUjkARCD+1j6544aM1ApWVlVXAuyXxeP9Bsgzcy78cZ1NHzZQcMyONaRjTV1Yem/73l1//Aw/93YXTSyd6k/9fLNe7syzngHo47sP38hxYdo4ieW1Z8hg2zmFJmh94q8iSrXmlRM6Q1GDE7knk/mp7o7d6dt1j2djT5mZG636L5y2OwGd9BP7nQOg880N95VtGNGF4SyxPNqx5PLotG15PNqfTFDdycjaoS1bS1tNmzkkFo40968ul+IHFjeGzPndH7f4bGxt36e/vf1qS5DGZTIZu4H99lgtstkScDPq1lXvtNu2gZ55/fi0PfPycfafuHwz9PZzuDlg28AuMqQPHES4hTukRoOixVQGEXsuRNMx0y8xKJs6VMtKSqmtSwOeXEsmsFAzEki3x9Ct29ZiHEqHYb3e57Oeto3bjI3Ri3J/86qKzw7YaigST2Yii5gI5C7clyYppZXVFlh2vR8pkpayZ8pg5VbGTab+WTId36iyu6xF6CMXTDGkE/idAuGbxjJrerr5pIcmerGVTUzTHasKuMA7ro1RyPAHbysowkyXZsSVQUJKqqpJheeKaP9Dfncit8QdjK3sTmfdVn/5WVneWT5w4fZ3n+OOtId35EA/G4h70WO2IGM9grmdHXMeWhrFwff/LaxjiI/7w8FAoNF3X9SUAQzXPh4q//TcgypKu+qSairLH9tp371Puv//+JI97+bxvfG833bzN6WnG/MVUxszxgAa1AHQEO8mRJcX2Yn4THG3JBjDmHCAFvEIjm8E5FcljmZKmwjtMJaVgpFRK2Wqm21R/nygt+3m2JvoCKFNjuPc3Gu9zrr8kuKpz5R5BXZ6cyyYn6bI0QbaketgKNR7HLvE4jo/4X/hs3LkkeWVb1uU+07T6LUvZqKr+Nb3J1Cq1NPSuqer/adqj7B3PobdkR+N6N3dOztlP6nzddL1/Uq9zRz2rkf6cQW/uI/HBb807dZcKJ322N9F1ZEnIV5vo7lVlx4CtzJgJLwXhE6wWLhJH4jrHf21LypkGLOMQDlKlVAY/I8xSXlkjpZNJQ/F7OlNy4G+dWsVtkw449UXPgQeaI3GtA8/x+tVnfbfeyFwZ8+QC2VyP5eX1YaPSVc2BKe8Ytu1kPYptybInlTNlpbJhbV+o/Ps7fe8nb4/0tby34MI6PdtyXYVX2k9K9dkBDzwOOevJ0tGQFVyPzzFlr8MNlvtOxrQ8rVr0pqnzfnPLSF/Lls73wawTL4wZPTOCiqWlvI7lOKaDQJkjW7aj2rIjgQqEK8VH7VhKAGDgeO2cofRpmtEVHXfoHjNvX7OjrnVzn1NTU3MbhDHfAyBK9Ag3D4L4re1IPkW3G6vKfjR+6tQbly5dint1PG9+/8tL6sz+k0pDupRLAxs91NYoDA1KhoJAI6ODGAIhiVFlKWlkJVlXeTrMff7dlkwAoh9/IyhmMzlJ0wJSEi6lXFLT0mw4t/SPr77hkwCGXbOPakhlu74dUX3HemxjMgYsJNu2pMDlM+DzaYouxo9z8b+oZQ4AhsaCu6h5NHEc5y0pYtXn6+mwPMs71fCDyUkNj+196q1dozkn3r78+C+X5Xrvjfp025QydhZzFY/B8nhVmCuS5M/BjFFykiELzx3z2I/Ziz0La9+RTYR/xeP96IX5zR8s23L3WESU+QVvlTHfBxyriD97nZzD4RDKKtDmBkLRYr54DI8GFkGxQB1gXFKW12voIV88VnbGTpc+8OfRHJPP0rlHHQihntPef3/p1JJs4gw1lzkej7fEweaA78XWYGHBONgoaB17+I+7Qf7lcAIgZmLCO7SwPrLZrOQPhiSLPwCOYFDieBiMXl0y/OW5Xlv+sxUJ3daveP6y28wHe0bqQb559VmXlCbarteSHZj3Ccnvw6aFxe4YsNpxjdmsISk6NirDkoIlpZIVqu5pk8sOnnT5z14ZqWsonOeV+SeMH5dIPK5mEp9TLW7SGcnE5pHFONqSJsmg3MRyg4HBdapiA233lV2/84JHLxvpa9nc+ZpvmFHu7+x6NJDu/rKV65cMHc8P16c4OSx2R2z2XOg2NSd46aAdzVwK4yhLuXCJtNoT/t5u1zxzx4641s19RkVFRQgb9r8Mw5iUTqcFIzHwNXAzVzAHaoL+7sbGmlP/tPzdZTzut2fuXbVHQP17rdccbyf6JVuBCYDdXnh/mCsW3CQ+KR27KRkPG4iIqSw5XlVKZjFGON7rhUcIc45rQTYMyadhfsPwMjBGKYybHPT19hnmnVr9zosaLrq7e0ePFdf0mteXTrEyrSeV6NopfkmqziQTUkDHc8UahXmD/xuSV2zm7nPm86bn+yGvgjkhABOww3Uve31iH8jaOUkBNmiyV6x5OVoidWXM1Qk9eJscDj457vKl743G/b5/xSmHV8XXPaV7c5IJw5tAxH3FNm1JxXWonLgeAKGSpeEGShsA7+DBCaHw8ES+AzkmGw8c5iv+0UDCZ+OfYBIgUE5msF/yM8Vc0iXHF5b6TOVbjTf8/rejMRafxXOOKhC+ds33miLZdf8XyfSdJyWTsQAWsgHrz6d4YeFAQACvTyyQPHXEzcIBZcSXg2NJRdnwCBmLcQrKdFBNWD/iJcNI0rHoTEweS/NLFiYKgDWX0QJPpALareOuePKvI/FQ37763Asi3WsXB80eSYEHhjhH/rRYyNjWvB5sAGKjU6UMxA9GpKpNa9r90Iqzr/73SHz+wHOsmz9jfKR/5SN6Kr6nx0zD2YDljXEysHmKDdeGCIOLCWNLFX4W4Jyqmnhdw1W/vnykr2Vz53vv0pP3b7Lafm/2dfhpMCSpC/FYAEKMGWlAmj/IKHBg+9IC9thpyQfPhx52D1d+7U6/q9j5xKNAdUNlsmNf9Oaqq6u/YFnWC4lEwj9QKLO5K1FgoE0oLX2nMuY/8Xf/Wf0Gj3lpxlf2m1Tq/ZOa7Na8pok5gQA3ngs3NzoNlhdGEwDBB6Djb3I0EHwKAmYIBRDwaAwSPDDtVTAgKjbHHDwrNaDhb/AUqVnFGtBkNdvj0W/3jGlcWHPevR07aqTemfu9plh/88mO1Hu+X7XKc8kcPFdNMjNpLFNTrG3hHuFauX5BNpIExVd3Y3dBkQas8BElBcYk6WUTxlF/OgND0i9l0ylJxXzg/Wcxhl7GUDXMmUDknW5L+6laVv9o7SV3do7kPa+cNf2wWOfqZUF4fQQ6A8+N68nL9SSAEPuVbEg5AiGegQwg5H5VuJ8Czb3pV5xB3O9m/56/Ae5t8Crd8cBz5/olyPL3STMn6QHhJ2KOGKDLgxL0FFKgtOqo8PzfPlWkSEdmFowKEHJDab/iW/sonsTibCb5BVrOKtgDftUAbIL64ewS26Eb6sgAzVTNh6+YNLCOaU1iNWFjB3BiERiwzmkVU0hAy9rEZAXjJvltv7A0Myo2GXqI+L0MmsXr8bfl1Mg1JdNOvm17N9Xl8869oK6/c7Ge6AA7kQEQ5zBxuci5wN0H4cGCsXDN4FIkqbyxpS1Sc/iUC68fcSB8E0DYkPzg13Kie5qfzAyYFwtAnIMFTetboQADGzSBUJbgSeO7rmDdtQ3XPzNzZKbMls/C3LmOV++5VI+3XBOAJwW/AFdB6geCECeZ3yC5wcCatmHZcrywudgeHAXKMI6pIJfVd3Zq9YftcsUt/xzt6930/BR5xGKxH+RyuRsVRfHiKxhc1yAreIL8HkAp3hoEW1EfjfxuytTa7z701KudfP8/L/z6uWO82ZuDdgpZE7w3jdsbjsZ54A3yXmn5+4FoXAcWRohgocp4hnCBaPWTBRNzivkaWA+cayTYBBMnnjKAkGApB60+LTKvcu/vLNwBMXK5feYZXwvmOq6RjN49DTnpApqlANhd8AMLLr7S04XvLwCQaiKD44X5Se/aC8PNxJo24P0itID1jZlKahSMCtc0DQMKkHw0isFG0lNMgRrWgwiLgEL2h0qkDlt+PBneac4uV9761kjNkbcvP/KwxkTzMphuwmDLeWBYY10pecOSexe9NgIhn4WM+Ss8t/yLoR1ym0P7yqXhnsPyWmLchC6CFDk+l+NrCPoY40pjF0atrEJZIQeltMd3VN2NTz85Uvf/WT/PiAMhaZPOV+85JpDrudE2kjUWYgR4vJKCha9gZehYFHzAWUGNw9ozMPHxkGVYfRksEBmeHZV1oKYkCwtApkWIyRHyB4QlbIByyeJvTEn24VglB0sR3+dgaXOT4YQBFEg+TFRL9mVyscrb15eUXDflwjtbhvuwXSBsX+wjEMIjtEE7YlcTnixDXvS/EPYXG57FTbNiTEtLpHZUgHAdqNGy/raHrVTXXjqvARfBz83BG+WL9gWB0EuPUFjmjtQeatghQLhu0em1/tYPngobfXt6sOmlMiYADs8N273q6RcbP3whjB+BkJpgGVRYGqkDXmyAAG0ZRo4SlTp8dVdOWXDX/OE+r+G+r76+3g869Da8/1TGBkl/FwBJKD3dREIBhATIkKZZO9dX3Tn/uJPOO3DuXPNXEIx8ObP6Tq2n+dshCZ4ejmN0VAChYDQYGAT1x2eE3ZRTR0HcJwEPKOgLgiKG5yyAECYEjlfhUWcNXAf3SwIhQ0t5kQ18RUElOpqvqz0Yu3jMwkd/Odz73tb7Xrj1nNCE1W2n19ipeblUV1QCfWgA1LFYsYTBQtDj5VrOx/cJ1+4/rHkYrgbAnLF+bvqmxXinhn+KlOoHner3Yynhe8T+ZcRDDUxgRI8lDzxkIo7uj0gpGME6vGYDQMjYoxQISu22ujwbrbto0px7n9/W9Q/m7wTCsYl1y0BEisMJhDDfhNEh0lwA8jaYDdPLeeoCFULbfDJurHcLr80pjj86lA8VDAl3YXLhOJegR+lycvWK/QXXAkWxTtEVjAnb65d6QK4YpdVHjVuwtAiEg3m4gzhmRIGQILjhnw+cGsjGbwz6nJCZS2Px0tLBgodHKOOJEzDcB+wCIigeLBRMAgQGslgAQlmHDciyDSmCeCBke1IasRZ/foMwsag0UEiMH7jCGvKqIJ+wkdKiNL1YeCL+lJ84XKLB6C8848fOrjn9lmFRSK8tOPOC+kQrgLANQAhqBFar2ITE6MEqxgIvTF7Ytig10tDSWV5/WNN5t7w2iGcwpEPaAISxvtaHzFTv5xmP5/KxsSljCxWLR2xGectSrC9QUK2RxqubFj01e0gfNIyD373w6EOqzNZnfXYSG58i+fyAgww8U3pBAEICgQW6C5IZPDu/sHw1AAbENCJWnMXPPr1c6vSV/mltecPx+160eIfGv6qqqioBfr8BGO5PQ6wQH3Qp+o9Akd/zb1G/P9NYVfXDl9566y4O13NzT6xtyiSeQbR6d7+TkjLxfkFlCc+XQMg4EAwUMVfgSfH3ZDCgfpYs3DzjUfSuDGx8/khA6k12S0rY9QwIqjKCifwneBSAEK/Lh0HsdrTlXY27njzl0tv/M4zHttW3dN38w4jTtn52zIxflOxsUfyoIJDBeiVIwEHB+oRnxHkmPBmavPiX31WID1l4fgqYHg/WixdAZ4EK5dj6IQ6yAIpZIy75AgGpL+UawaR+uab9OJdPwTHYN3LCQFa4oqVMf58AUS0GgykrdfbrVWftfPWvf7u9FOFKAGFDHEDoSedhPOhSo/ifMIJwMzRODHhnLu6R7ua1uqGb4b2oiXDFRJwbNABcSY2ARLG/0DvOgnYOwmAwMHYp7DU56BC6tchRk4pAOLxh38y7RgwInRdeUNb84ecnQ3l1k24mo8ksqCFatUh9YCxPI80hzFrGChjzw8InIGKjVgheQDYFGwLdf7KLOYhp/AFdyqTSItyuYuMRk1EIzWiBknuHZQRqjZSMDtpUeBgA1iysbOEP4e8KFq0CEUarHVxSsVvjOWUn3xIf6ui9tuB0AGGLAEJVeISII8A6E7RGnv8XTC89Ql5XWR2AsAFAePuoAGFpT+uDuUziCxQLkfx0N1qXYiGFU1hMHA8Z49scrV847tqnrhjqfQ/1+NUXHHx7lTd5toZ4YCKNZwzvhZYsaVoHajsudrFVMqaKzZxjpsPgUXFMCs9bprFDyrB8TN8qKXLo5xY+8I+hXsP2HA8g3Bt06CMAwsYANudkEiIFzF++hDgqL/bjV1CnUiQQaNt97NivPvvyy0IdvOyyEybvGfa+ZDS/H4nibTonLDwmUpsmNlDevwZAo+Hkeoqu2II0oYY1oPIZYhqrggqFYQchlKXi+eI5y6QX6Q1CDEVRlIF5TvBRzH7Ji/SKVTn/3EmHTL52JNMNXlx0enhc28Z5sWzXebaZlAMhVeqHYWNT3AaPSVWwOcOLJfPgggIpeXwdIIqUMX5eXGsC65iebhDMDsfPxD3LEF3bWE/0BKHLhGfoxkFtHKdgPqg8D8aCoZAE1rEfYKDjdwY8aEXFmIJtMv3VnW1K6KwJCx56Ynue/coLAITZdcs8MHQFEMFQ4/MR3p6Lgi41je9dHai7deZ3mmF+NNcnnqc4FecHvUH3rG6MkNeB3+FHrusc9kbHH5S6sfd0RWJHfG7BU0KgVXxt/wiMGBC+s+CHR8QSG+8tN7rKDACGgwCWCfDKwfKF2BixQdIJpO3c+IobPMckhzfgQ3wgnUiJDQKhaRc88fCTSXiCwQC+x0JIxiXkdglaJZPKihiiB4H5BDxLLzzCIPlznN/kpoM3Z0kl0Lak6jgQldJyRGqx/dflJnzlqr3OPntIZavoETb0ty4O9HcIIHSweTvczPMSZ96PCHBzWfB3lXUt62I1h+0yWkDY3b4klY3vjcRkEUMtjCc3Rm5GfAlRiohlgBqNNCxoXPTknO2fLls+w+rrplcHezv+ZvS2TCBl61cjkMVTzMTNzqWUPoqhkPVygduhwQMApJyUxg6pqK4U0mUaJ13sn/PITQPrd47m9fPcJSXhU1VV+zkAECFOULupFOuKuuO5CU3KeRjzB1/4/P77H4K0CSHsefiio3ffPaI+X+7kSjSUgHAAGpjNzGvxGDpcG9CivhzIc9y7ASCxgQSqnbNV2aukQRNSOUuPic9Ux0af4fyH6laIN/AsOa8Zt+ImqZkAGLItCgAG45dVylav1iLf3eOaR/4+EuPUDjo0u2bNnEorfrHH6vWCwZO6unulaEkFABCCjb4UPDyAubC6OO/4pQCErlCGLwrZaNmKdQu6mevW54e4BkAoYp8QSiX6U6CZATw5ClLgDWL9q/CKERuhvAgqSV2KYx3Tn47oIVTjgWglHXfVtVpQ6lQiqzpjE46beuXwDU96hLWgRnFy15AEfc/9yBGUJdGJ4+7mfbqA6I4y2ZftefE0dAxMfKjw/GnoCyrWNbQd8OgGBDMq/iDj2UMvg3sOSWa4/IjSIhBuz9B/7L0jAoSv3PCDSdWp5JNy8+qdyjxJTJkUZMaW1I/4hgccPwIZsIRJi7ocuKuSclVRIh6CzZLWpYMJIMMqzOFpB4NhERPIYRLQMzQgsbdhFaqg0ET8GOfJYuEZWEheUkSklWhUMYZDOoHqUiwjJNSJZcogc1wNZfqClWftMvfeB4YygoIaRYzQDyCEj4pzUtsO2kZ4YmIq54GQeT9Yv5UNLc0xCD5GgRpd+6Nvj6vNbVzSn019kWPhxU5DOlS8hHfqii9MiDSwHWGsTKkj2rCg6ZrRBcL/zD7k1Dqr6xeSaahUESa6s1IIakB6MnzO4nnQQ2doCVdmQSVHYFRxDFWRCh4alYeRGJ4T8+YC0RfjpZOOq5p9V9tQntVwj50+fbr24ot/vr67u/c8GlyoMSroT9J4jAcWgLAgnsExTkkocNWqdc1XFT7zBbAiHY/csHtlSAn4bNkX84dUy0AEHJZBVk3DuLcdzGoMgyonZR/9OdmTTeA7Kap5nPFOqn9aRJH2BALW6oiF+8FseDA2QnSEfZFASBqcGyUcRRG3cmBgGCKmFJR6w2XzG6974srhjkHhfRQ9ffDir86qV7M/tZKtGjLXwGG7VK4q+6X+XqS7MJYvkCAfD8wbuO7vGLfmtcKwAS2agCQ2Ei3NqZqeS6QSVH7Ay1EYZfRmbNtnZ9JaKe8LuZNi0yeTJEQ3lNZaXHGSE4xIaRhWdhZCI4jpoCOF2hbSlj5QpRW1UrtW+karUXrIXlcPTwtAIKxMNgMIc+7+AmpfgDuA0YU6F5j4OxHt5X2TAxb5QB+JZjYd+63FCAsgSgAkYyDSJcRn0xN18wspp1I1GcZ/P9aKDvZMlxKg0T3hqiNj1z4DD7ZYoH1757t4zNt7ktcWX1DiX/+3O2uV6HRPfwaWKqJkTJLFg7Ww65Hfd4GrEHRmTAtuPlSetHSZL5SG5RyIVvRlPMorXf3pFaFYeQuYtQRnHOZANNsfD8WigSZvLjUZ309C3FyyIbKhAs2lq3huTFzGIMXPriqVcRkVCziThBgB1FMO4NDjib7TXzX2sElz7lo92Ht/FUBYk3I9Qh2LswCEBBp6hUIxh2t1qVp8bmV9y4ZozWFTR8EjFECY3fhAfy61jwyRQQFYCvEKDxYyR0AE+4Xy1pA6I/ULxl3zxKh5hCyTt+4Pbz5Q4Ykfl8qRWkIMxwLVR7EEPp9jlMYC5nQLoBgCcwodL9JQ6PXjPzpyHdGEAR6GJPWacWyeiL/5otJqJ3TAuEXP/HWwz2l7jguHw2WqqjxuGLn9E4kkaDjfx4CwQIsOAMK+UEnk6LUr176wPZ878L2v3DEjoG1on1zjtU/OtG+cgbkWYJyMm21hu/MKVTR/BilOb5s5tBi7oB6WujzBP3snNB5Ree7PE9tzTSuvOvWgiJG43+5tq4mAymFRAHokJlSwLLAUDIQRusAGDUrTMcnkuPmBTIgQxiEepK2pkEHp/zIV/0tSKPZa1pI2aEqkA5npqd6k1wn5NTVnJMLxZGZMfdi3S27V+/tXBTz7WSjBxvVkIw2Jwhiu8X5QoU7AJ4RXDkCAcx5BVYxLPpYKzz1DEVblmJ+11ZZfNJxCAxTL1KTbQDW6VK8GSptwTkpfJPmD1SrkOgt4wkUIjQCTQLcChNt6DvQARXUh7BtCXpTPpxY5itzJ8JxBfOGeIR6EV4xdT+RWxrXwEXXzn3y6CITbGuHB/X27gXD9lQecVW0kbs32O6pqqcgLAhjBkk47EMpgsthw7QtWjqitSPoSDzYD6ifLZGUtsipty7/K6dHnIr7oqspZv+jYlA5zaxceH66Sg5V2onNSUJaPT3S3H4oqEKUeJJtyYdALEvSayE9yrTXKnbNcLPAaNcQQRUGTSI20yvLfO2HvM84arOT81avPvKA62bI4GO/8GBAKbzAvf6aH+iGFVVHfsjFWPXpAmNnwQL+R3ccDK5qxAzcJlzgDqgxLhcCD7CxYraRYDKklWr9g0sLRA8L3Lj959wZP2zNOsr3WwKaoqQG45O7z8CLdhJujKUE9irHy4SEQCCWmodBzZ5wJGzkiTvBsDMkMwHgCJRYEmPaFGn5Sc/VTlwxuKg//KDd/sHQXy5J/n0wmagl29Aa3lD7BT0K86t1ATd1h6958c9XwP3nz72yF+jTT895JfjOOVIVUucqk7nx+GVMw2O2Jz9XEACKzDGwKxCiY3wlfqLWncuz0iT+658XhXtMrl09vrPCk73bivV8rhcflAIRkPBcf1J8WGBqR/kAKHmBHT54NqUglkoXJwTDLqoF0Wg2/YGjhXyRi5a/uetGtGwdDb6++7pxquWvd573Z/u+HZeNrGHxVo4AKKSyaX5XS0BAwTKo6AESscHqNqOeE+4cHh3XIOZdWAn2JUOVJDT/+9bNDvX8BhKkOeISFfD4WQeA+QsOOySDcKt1C6dxbLMXuR5TzxbQS7INJIDNz66PPFMY/LBbZIeMFxiZP2TAkANlQ/mfxPd/k1nZzjxH1ZXAcOWc6hWRmLSirsXhUVLlJwM1OgGbORWOLpl758IhrEIY6bv+vHL9dQLh23rG7lCRbH1WzmYmW4QOvT/EDNjmgXVLBFKVXBgpMg+TXRvlQsDhSiBVEMKkzoFa69PDjPRUTLt3rsltWDmVACYz/WXDG19T+npsj2f6JPisBFWlGCqE6t4l4A0UHpFozEOzIsC/5Nw0UB63ZHHJwknpFtjdc9dIKw7cAACAASURBVM1JP35wUNY8gbAusVF4hBqBlsIcIWigNwgKUoARRQ2kJLGhl9a0tFRUjkqMcM386WOrutqWoAL5Pg68bgI/wbAg5RadDmhJYhVRZMD4XGuwdsGka5aNmke4dvaxp4ZSrfd5s4jjsk4mqJ1cGqBHsRP771FTlMWGjZhOFkUANBhBKgCRG1hG4CWtb8ZcXbaAKlIN1eLSgfJVudg3dqu+9FJX0z5KL9Ci3ueff/4IXM8DiA8GSYdSLFOgRwmIhdQJXgLjXaBGn62trf3266+/3jtKlyWtuPzrl/nMxCLqF/0ZlvVD2pCoRAYgYs6liKdjjDMppBfA6wbN3CGXzplw/TMLhnNNXFfvXXrQzFLbXhCAR+aBd0/5l6A6hRSUnig8E2Y/UudDJWiORgNLgkHRqQc7u7ylP5q414n3Dzd3l6K71U8tvKBKzs5Vcqkgwx9egjC8oWQS1HkgJow+E8YSEEXEEPmcgjoS8Q14o/7yB3qnfP6soXbrIBDWI4+Qtq3LruRfXO8wPqh+Z/qWTbUvjCTN738lJYdOKLn26RE3hIbz7Irv2b4RGDYQ0ojpm3XITCXbs5BJv5ahC8/EDyD0APySugUFpys1NsCLRLQoaBSIXvr7pbLaMf09snrtit21xfsevxQlKYb3ehd5a4Hu+OKo0Tvddvo9VhrxAioRIR5wPCjZxOmMi8qi1FdIR9AZG5zpgbcSqJDac757e6bUnz0YGoXUaF1qPTzCLiH+YBUU4XHy/AhgI/bjioCwMTCfzyitBRBWjB4QdrQ9kLEz+zI+w+om9LILMQVukozJuWIZUsSS1BKqXDBl4e9GBQhJjYfWvHRLta6dLGNDZpzPD/GTDXaAcRQCIYHD7DWRC4ogPyt3QAjBPDghDEEivbDBRa3JvIAG96TCzUerkUyzr/bkXX/80KPDmyGDexcBANToVfg6C+IYGcW2hSq0YMjTOyQQssQfhVwsvVZeXn59Q0PD7FdffXXUil8vv+LIibFM3/1hM/f5AECJ8y7Hyl6YZyoASIGHncJ4+5CHaWNcHeQi9jqxR2oPm/Wd4dTcffVHB05r8mpPKcl4jdmTkEqjMaxd2CBCuUnhCAtcEAjBruC5Mb1AZRoMnmuXaf2jXy+5bNI1j223WId7y/oLDjy+zGfdYKdT9ZwnPsRtFYpFED82YRAomFOMn8ngDZmbSGMwi1zEUElNX7te+pX6q5e+Prin7x4lYoT9G5E+wS3RzYEUL3yrUMgiDHzon1nCEJ+p+/2vpUKRY0vmPDXoEMtQrqd47I4dgWED4cprZzTGWt/9i9dJNlHlRjk4aQM/Y4I4a1ZBDAPeiM8XkHKIHfqx0bHWiRUttdblnMsn7X3aLcO1GgcO0fLLvlNfb/bcpOZ6jvVk+uAVMiHfK/UkQOcEIvA+Wfcwh5gTFgw2DaZpZKAIC1Y0rl1r+Y+auOiB5dsacoplalIfeYSs8UYqttBVwAYIMo+RG5SJvCoXCGtHRSxDj7COQGim9hVrVuQf/e+A8NW5x+42Ptv3fK63s8yPDdMDY4feFCktAxSo5gcDkAawSREhi/dr5no032kQkhG0GnJQ11HkxMCTdoMuLhFFrikNKz8ebnh4zJRjTx4sjb2tZ7m5v7MR70033fR7gN9XCYIEPYJfIWWCgFgQ0PB30WjUgZd4ck9Pz4PD+bzBvocAveqiw25E6OF8FawHqUBblDCDR2LA86YoCvu1DUsobQGw9CCgIfKyU9309YrL72Hi5qBfiE+q9S3rb7e7uk5H+xcpiNSEHFIeRPeMfAoDvS/Ocz4hgRGgQpm/2mnrL3sm7Pa9sRf+fEjgs7WLIxi+f9E3TmjwmrdK8Z5SlG5HjV9YAVSTYsJ7KBqB4phyXZ+P8WhqSsk2KVJPoHpOzXW/XTiU+BmBsBpA6IpbPg6EzNdlyhTLGZow8AiEms//Rmus7ugxMx8seoSDnmWf3AOHDYSrZx3z41i6fa6MxqSiZihtKCid/LCYKOOnaESooWilQTkG0xXxn7C0PhC9u2+nuu8PxhMb7LCtv+xbXyizs4/57QSK/neBCsUVcVOQWcWEuVekEEHzMIE/GJTivfBSgjGpLRA9uenax5ds63OWLzzr/OrEhpv0BGOE2AYKHqEAIgAi6RvGE/JAaMbqRpUarWtvXoJ6p/sIabcI5DMW6KrMdrRH+Pblh59b7yR+lu3tkmJQ+qKIvoj1GYhrKDA+2IEghLHOJmUUBAmjCnXiUsOBGhHyN9TzlALwvFhZiAERtwOJmztFOioLzz4ZqljbFas7ZLdL7nx3W89puH8HsMWwAa4ELRqjJ0jQK+QQDowVFvIHeSziiCf09fW9OtzPHOz7Vlx0zP/VG713O3Y3RNeIu0P0xQ1fRaiB1CTTvx3EwBmCYGqFkVXfDI3b4+DQEPsWrrj61C+V9ax9AnlM5UjVd2cSlbP8tlDijQxEXvymYL6R/cgGSzYkS6IHNsxcumKw9zSU49Zf/LUf1TjONZ4siCPsNQKQqAHDvXpRWCMNgBRgDdaHzweJJ1IiUL62o2LCHrvNvG3QhfeHAoQOPk/3B19fHa44ZtKcpUWPcCgP9BN67LCA8JVrZ0Rr+zv+GU517ozsVmxi7ADBDRnFtE1SpPl8G1ZKYK1FUhuoEtOVNP+ZnrzTN0ejYv6GS785K5bqXeA3k0jTgroKFmMGKRtIrBCxKQcUDxdRIIxYAoArDYqlJ1x577jrnztzW8H85fMBhKlmAGG7WzkTXiU/QxQCF9YifF3G6Vg1BQvRLGtsbSmtPHQ08gjdGOHGJY6Z2Me1zF3BztaAsDVUMW/ywt//eKTnINMFGn477w9lZv9XdMaLKFOitJtVgyCGQWcqGM8+KRmHqEIpgYLY81I4VPrdzlzbT2XFOlSjKwvPkbmjrujILQBAMGd8M8d0ARhPLYGSk6bMffzhkb5+F3QdGbG+o5Ez+AiAWWbSNvPdCIYERdLpzCXs7e1FSk9Q/FxaWvoEPMMZra2tw6pUNJT7WHHpMSfUZTvvNz29qoV6rQ7Si7i+NKhvCYRZqhsRQ8uIGp0qkviD73SXVH+tce7DzYP9HKZLNL9y3xUlue65GilGVISysWZ4/xbSGURlHXqeOKFC9gPevAJWJaWE473BsjPGXLP0N4P9rKEeJ0Q0K/7zaNST3DcIpbkHMWjRjYZ5iCzQjxAIdSYeD9SrTDOAijMhhyWzYud9xl5x10uD/byhAqHiC76+LlIEwsGO7yf9uGEB4fuLvntMrKf9156+TsXHIDoFGkJdxY7bqBAh8mBYQo39uCgoUbCJ+DPNSuTIuuse/8NoDErbwjOrfD0bXoxYfRPY/idFtRaSbZkYa0OYgQ4xoLoM5CIhcdnPslCwosvq3gxNPnWvbVG0bxIIk803qclOWMiMESI2wa8CCKlewyZEL0ZkPyE+Fqtr21he/c3RAMJ3SY32rnsQfOMXGZcstPj5XwDh8gXf+eJEp/+5bMuGMBRtyH8GBYrNWMWG5aAocw6UdAZUaSxaLdkpj9Sbsu8u3XvS95s/WHuoN9v1RAD0uQxRBjd2Ec/FhKFnzY2XP+dYfQjeTp+v4u7/HDD+3ENHoUkr8weXLVt2DwQX34FnKOKAot0XAJEJ9XwRFOltUDRTUlLCOOH8GTNmzAOlOuK9LzddGysv/9b3K7OdP5ecOKhmxAkFEGJFMb+RvqEX8w1UXTLHWJ4qhbXSN3u0koNqrlk6aJBef+MZE3zr1y6NZLunkqqmYDELkFVQ7N5GPI5AI1JxhHYSoIP1jRUt9eqxe6r2PuX721o/27ve+2447SRzw3sPalZKSnO+AKCDbNaNeqReOYA9BuOC/GUVizxOQyxYAVq94vwx8x++ebCfvSUgJEtBle5AapQeYREIBzuyn47jhgyE5O7Xzj7y1kCq9/shUnNsH8PkaAChWxQYMTqhAnRzizyINaAgkpTVwo/XfP6UE0dz0bRfefy1St+6y6VMFxKyXaUZaz2mkBfGMl5B5IZRYUdvzsKC6tVKjTWBqVX7X7t1CuXdK886vzzbcpOS6vgYEAobGZ6wLXqq0TljzAQav9L61hZf9aG7zBz5WqMEwsp48xI5m95HdJmgwu1/5BGumnvozyI9Hed6kaepoUcafULK2nPZBOYEjANY79DtwqtQpIAcsM1Q5WmhRY//ykE8qu2Ddzb4M92VzDVkpRVLUOpUwHJzc4FR6F/xrDKx6g1rnKqv7rHgvg9Gelmh/2A1PJ8/AfSmkA7liyBYUIwSlCmOIRjyBa8wgeO+j39DKsownOumgnLdkwtvLbOSM5gzxyJCNtaTqN3Lfn84aYY1UVG3k03zslh3qZzyl/qpnzvUc/adg66etGLmsd+K9a1/vATqaqY+oZo9AIdpLFjbwtsqxM1cRSU7aphKSbJHrzpw/LVL/jWcexvKe16++oSdG1Ndz4St7PhMimIrlG5ngr9gnEDRGkmold3SaAYM8TgkreH6ybfHZt17zmDjhATCmvjGZW6hVIrNXLEMc5M9eWOXPLGFGCGFQxo8wnZ4hE1FanQoj/ITe+yQgfC9BdPrKuOdS8DZH0BaS1BioqCwK6tmrzlBcQklIJgvVpoMldndgarv7nzlr0ZVXPDW/O9+NZZq/aPf7PM4qETDck5s4uuDrJxVapjXJjPoIaw8j9SnlkrrY7vu88UrbtkqhfLulWcDCDcOAEIWknYFA4I2EuW3OAbI3XOgSqVHGKz55i4zbxzxPJ93rvm/prLe1UvUdGpfEa/hkt2GWGY0qNF1i06sVbrbng+k+yYGIU7KIW+Qw8BiB+g/hA0zJ2oy2ugUkMhB/q+WxDu0it3HXvvwGo7bmvP3f6hSip/IsaN3zkLcfD4agJCJ1KKTB+Ou2JfjqGbSGx1zyk7zHrx/pFcS+w+C7vwtwK5aVDjKq0JJhxaqyjCvUOSDASTw+7X4ekJbW9vLI30tm57v7ctO+GLU2HBf2DEmKoi9UpjMcmqiWwsrsJCe5+bPmCxlIxCHpdSKB2sXPfWdoVzbmvO/dmONJ3WhhtQWGo06whgpxAdl9gBkwen8HHP7ScJThxfar8UeaDz0ktOGo04dyrXx2FfuuEPVe/52phrv3i+mB6hYsVLo7YTsShSOQmIDAJzFzBV8byBBS/NHHahY/73nvPtvHSkgpA6C7P1AIGwrrT567Ex3Phdfn+4RGDIQfjDn8H2a0n1PootzOVVlPgTviQlOvpuEKUousUissKfEwu0NVjb3lTRO22WIAfyhDu3frvl+rDS74eKydKrcb0HfhTqOTINyGNTACywdXqQv8TskpvYqMaunZKc7p82+QTRV3dLrbbRhqkyuXex6hMznwmYt6mjwPG4NQqYBsBhyPOVIwTE7d6xQfAfvMXvkVHSFa1t1w7ljQhvfWaJkM1/y46O5CQhadgtiGQObZUek7qqJC5bNHep4bnVMLjnk6EY1+aCVSvj4rCmUEnUMCt0vaBhhgNLwxDOIE6aV0LNNN/zp0MI5V1568Ok12c676U27hBt9Q9CQolsJqShRylnEhHqw5Rmh8icaFv3+6JG8B7IbdXV1JyEmeAfoUHam/6/TEwRJiVIJK7om+P0UyBzR2dk57LZeg7kHes3rVrx/D/iUkzXQlTrFMUxcJ8sCIFQAfh5hCIGSZgqNhpzMYMTcqFZeNHnBY7cM5jN4jPPIhf7Ol//zt2Cub5qC3DwRz4BxK3JQ8VSYPK+xcDo8RKbB9KWRxI56o80lNdN2n/3AiPfbHOx1j/RxLLpdm0OJNeZMYg5arFLFBFj2hoT6XRSMF8YvYpJMp/F6X2uv2PmYsTPvWzPS11I8344fgSEDYeulB51QavU9nIwnpSi6OpiQxosFxULCAEMTjStZS1Klrht2monYUauvfMlO1z178o64PYofpKVLsXv+0ZF2Pumjne39hz66V/6+o0P8bTCy/LfnzQAQNi/Wkh1YJ+yqgEJHoswVABC0nwfCggw2Kw9qbCpKBAVxK1o/MIKH7Lnojm2mZgx1TFbDIyzvar0fOXv7maAg8ZF47VggpLhi1Us/v6FKTl5AIZSgZ6neI0UrBAwcWvZtAzJi80xpAadDrToebWM+FFU0L/juXrG+Dc8amb5yeho0KApAKLZgbMgivxBja7LmZiDcBXHTF0ZSrs65Ao9wFoDwxwA5NI4v0IAffyr0WukRRiJIAbHtB84///zTRjM++MeFJ1WN69hwmd+In4OWQz4KiDRUbBK0pKjuDr+M7AbHHNQgG6GkUXIsE6va+F5o7CFfmn33oNsxvTNv+ueqe9pe0q1UwIOYrojvU/bEmr0kqGHgURzmgB6mNxiIlUurbfnv3ZMmHDiSyu+hroORPn7NpUcdWpnayJJlLrOF+UcgFB1zAITCI8z302SMUFYUAGEjgLDoEY70s/hfnG9IQEgLevUFB8yuMHvmiy7Koggt6BPWGIQ3xA4DBqrhU8TBDtyilQiSq1t9tcc2XfObx/4XNzgSn0kgrEg1L9aTbWyyBCvRjZ0IcRALhQPsM0gX4MatoLi35Stb762qOSJ08cgDYe813x5nt6y5328a+6IaMhSwsOIJ6FvzCKPV8ybOf3bEVKPvzj9zbHVm3WNSz8apHtDOFEapopQUuVC2r4FRBINIxFrYf66sfoM1ddzkyuM/qoEJgUZpuL3z11K67Wsyk5VJpjP2JZoKg/LDuTieBr6qiO0m0r1SKtY0a+zVz1wzEs+U5xg3blwUKRB3weM7jjFBMY75rgmFz+BmSE+Q3hDAMAFq9LyDDjroV4888giJBUEK5I8Va+n444/3rFq1SgSYXnnlFVbRcimSAS+uo8KPpO4IyGvuu0qz332r0sl1TQsr5qmVinFkNpnyMIGbxehpZIjxFF08+LzZm5D9CD3ITEpKXtTiXC/7ntV2P+OYsaed5k6KQbzeQ1WgulTLvQBBj6iYRCCEUUs4pBTLhOepwxhR2XwQazmB4hk9ZbWXNC547CeDOP2n5hB6hDUGK8tsHghZs5fEMBtLs1QSWka92oeE+tqFz6z91Nxk8UK3OAJDA0I03m351533xszub5MqsVGEl70E2WyV3Q7oAVheAiEoJAGEiPsEy7PtNdHahouW7tAmqyP5zJcjob4W/Qj1ZPsAIHSHjhtGljlOKHElwz3zssQaah72ZrUb7Vh0DXMZLZnZhyaIWmxhLEgOFPVT+IAK/Ek5i1g8IQBFnnE+K98hGwF5j5ZD9wZ4fFbKgRGa9bDUVlmus0oz4+d4UrkmqhtltOnZWvqEoEZHGAjfufzwI2qt+JMqFLhmfoNWoWgUdRhtqPiYzwYgZB6pDkNpoxz+1YSb/njqps9k9SXHXR0222bqBHNB89G4KuAGaHWCIErxsfZoAC0aetXwK0503FeHmiy+pbmAtImJEL38FiA4kR7fwDJqhfcU0ifoFUJU0w/RzE3wINsQS0SpV7RXYg0/vFBGAfeQlYJoq+KFG6eHkDASDNs1sYoHlj7//MbC+ZZ977Bd6wKBveo18MWpHqhikWziZBGR9KDAtbJnOtWzF4qlRUyAGw8RhgVbL9FfFmkp+UawWFseeC0OYt9aOIRZ45U2asHLd1307HVDmfsfzD7i1upkxzky1aFMXRHFnt1C8qwkI2qLohBFAPVM6SVlAIadVWO/3Djrvr8N5XM+6ccSCKvyQMhsRC5V4REytCJMsnwhAaRr0AXHWn/T0oJnrJRKV0hRyAJ0v8eT8XnaQynYdRkMZBhtyCCfzr+8dOnF66M6B1au9L+5eBxR6+P73bapPe2qY1VVOlZrypl2gJ4ZyX6Tn/RnsiOvb0hA2Hr99cH02if+UGIn9vGgqgPl5rk0iypTLckiz6RIqWaDiAbzxoB4JBOseK/8umcm7cibGunPKiTU+5FQj/C8oIoYSxBRLGzg3Jy8ASj2sHlR0abrEUkJlooqFzk2UxWqTopp2HfMrVrBtkN85VAvlJSTAjUa0zFyKirts6gyPAHG3aiKExs0BT7ZlB3Tso6Z7vGKNmmMweYLf+9Ij3DtRQffWeZJnGWhNQxVwaI7OSt70Du2kK4CjyKhs+sEmFGU4OoLjfl248IHHtr0uXwwf8bBkb51zwaz3SgkQ1kVLW7moHIiQTnKmBjHjbVH4QnZEUihArVHTJiz9Pntfcb0wlAm7Uh4g78GCCJ9zk3bGOgR8nt6gvF4XOTUUUgDYEwyXoh/XjSfRhMIL5CPbYVY+hKBZ6AFEtE9GqT80VDozZ0qyo599OXXhdr1xUVHhvVm595GzXOsr79XCmPOJL1Q16K4daK3D7YS2o/hfRY8M7Yey7GfIWKD9M9YuIGGhdv8lrR8odWRKqVoiEbLV3YH6o6ZNPu2rca7Nx231bMO+WtZqnt/1n4VDyzfENbtu4e6MewRCY/Yg7w9G+kZWlVj2+pA9ZfHz/rF+9v7DD5J7x8IhBQW0GnfGhAihcM2vOrbWcmThJXKQAk0XiJ4iIlrsT02HxbYVDwpV9PkvmhtCB6BIQU0mkJQXRTNR7FWhUaIzVnPX3CBs1GA4aihgNXRb8k9Xt8b0xY/84Nt5T1/ksb103ItQwJCVKaPjlfN5b5MxxgnjU4vjCkwhkA/SXR0drvPo+Y6AANJ6yi23Ruue6zp6t8c+2kZkM1d50dAiMa83IBEZRnmSkJIgK+QcqBnFFrBGCmpNMKaqmgMjH9M+FWY8It5zfHgBGchcpdSFf6PiEe4+ZeszYlixmpSfPWypiGtfgAC00C8cA01jLWRBhijILVXRuK+KGfngsaOAkLOgSnevrdzfV21UOl9OFwEe96awtgeLqkftWYNJmXboY2Z8omHNmxmgxaFGbpb3oimOxsVlAjjTDIh1Cg0n2XMLoSyWqlULzwT7BHwm+JayY9rrvnDvO2dTxMmTNCRJD8LatE5AEGxDgogWIgVFuqLhkKhD5Ps6YVTPcqUCqZZ0JMstGaiSlmYJ3gu4aBPqoqFbzn82wdeNnfufYKqfG7GN86cEvPdHjWT3iC8aQfzJUEhBsDPxDNmo2kHhhQLQPT2dktVZaWSk4QYCuvLEv078w2gWcCBQCUUnJrUj1y6HrXiwsmH/fBnQ1Fx/gNCmTHL33o7nOxu0qEr41wTqRE4s40ehOzewpYtfoIh2B+vL4TnGnklE51yeNXsn+6QPpHb+5wH+36mT1Sh6HZBLFMAQmGAErQ4KiJXmDWMWYTcbbthi8bY2PNE7ispa+6B/Oqq5t1+hYWXyJZ1DRoaeSwwL0CRhjDU9/kWTBTrOKyqLowe6C7wWaYXzQICZa/WfOOSLw7lGQ/2/j/rxw0JCJtvOKncWtO6OmgmQqSqTCTxcj4IXTGAUFChfJjCxzHQCDcgtZU2Xbvr3F/N/DQPNGuN1ibXL/YnuvJAyMonDKTjvlFCTkH/PDuAGqag8DR4ilk0FkZDVngNYWHYMUmcqQ6c+ARCvtcDcYire8DioPWJ/n2M/2Q11JTEmxT8LIvcOgIqtkJQrF6IRlLpLiFgUEBVmcxX2Eat0ZGmRtfNOuz0ULzlbg82bD8TzVH2is8c26W4Hx1d6Oj1JnzIv4MhFAzXP7o6UnvmHhfetNkuDRsuO+bW0nTLOaqJ3EPMmxxYBHbwIBgy9ihBEBRhVxFsM/3oQamFIn9KRqd8Z3sb9k6dOrUEKRAPwds7ZGD3+Y/SYVxgpEfI/EJ6gaxDOkA9KqquUD1M+x9Vc1xfjXQu5kBlLPrBhIqKk59fvvyfnPt/uvjQMTEjd3+tT9rfg8IMGtJ7wvAEWbCenhZWEu6dcwaFrsGysFWVDAEMa2gKQIbhw3a1NK74STIq99BRRH97ySmv+9dGre5ElBQbUt3Lf/7ktIb67nX/CiV7qvw8HeaZKfp2QhqC7jHsbuJjPVOow0MYhyz+nolWPFVS8vWTPKPcEWRH7xeFxryimIMoVAEvn4YNyR/RozBPjaJAh0goyRcYEIrSfHoJzSnuCR9+FSbuwJfbkk4wPvg1+6WyKL4LhOynSuOaQAqhGZsh49zMFRa7KfbXXLj25fVN1fv/vyRS2tHPeUufNyQg/PfM6VPGOpl/exOdWJVopwPPhBUX+CDpEX7YvFI8OhMJ60GpuXzMD/aY88tbPyk3PJzrcIGQRbdJjWLaY+OjvJxaiSDiOOyoIYdhSbMoMqT2fnbvhgdn5SiqwYJiOhwl2QCILFMe8gtGFiIIbkC0OtktAt0FVNRuxVc2GmanalFtBWIcqvmS6A0XjqFTN2I2bgyDcUZ4B2RSdoBYhoWZa1eseKHSTH0phXtT2LcPrACXe04KCcDXHXg6uM8k5PxJb1jqUyrPm7xoy3L+9XOO3busr/3vAEK6Q1AeEwQpl+HGAAOCwiQMIJO7Pagy4/OrqRa9+mv185f9f8N5lnwPxSqNjY3jurq6nsPGN44eoEjO5oByWxN5oS4QUkQjumfgK6lReoCi7RaLcrMLAoU9YlMDcKMINcueEQirK2Ozbjv5lOsPRPWZRx6Z7q3/c++Zu1YHb0+2bgC4IJaIhEsT1LJu49yMQ7EDO541NSkqzq1SoCPCDIy1wt5CLqVI2mEcFhukh/0cQdeiAfMqIzr2nMYf3//7oY7HuzedsltJR/NfA8nuqA7jjdScIYAQ1wEQZKk80qI+eqMonOHAIzRjFb8KH3DxGSPhlZCe/qTQfB8BoTsXCh4hi30TCJmnKIwkGPtkwMQ8oecnQh0MZQz0/D4Ofx9/Lh9ppwqd6d1QiSrWuxsa4P7C8ceYo8i4hlrNmZyCcEP5P1snjtmvCIRDnenbPn5IQLh87ne+WJvu+Jue6lEICGzJIhLp2XgVljwjRbTiublTDJ9UI1JzZPyJn5t3x6+3fSmf3CNeAhDulGpf7O+FahR5b4ygC4oT5h07q3MiG6SIuZliw1Cxmaig9LJp1EPEpiiqUwgqBA4OtS2MKOBdgkqkfAcNbwAAIABJREFU5Ska8bESD7yLfLFygpugW0RenisiUZCTmUBLK9bvJP3G0lcmLUdu2lsput0Vrps/YcFTV27vCP9j7re+MCWVfN6X7AtmCUy4bOb9QUGHTRwLGUCiWnHcP7oh4LqNWE3vRm/DIbvMv3eLyefsbt/z+9f+iSS+3ehhWflKJvSgyTqJ4soAQITmRDscBV5xh1Y+t+aG568a7v1wA0aptK8inPNkNp2B1fLx18A44ZZSKgrvMHHNTL4X2EkaEWvB79femlBVfdjz77wjFIXPnXfsThPUziUxI/n5IO7HRC6eBUNS1C7FfGH6jYFN0GA8FL0aaWA40EsEcK+MnRo0ovSQ8FIsULIsgYb2EFLcq/WktYqLd5r/2H2DTRwfeKdvXH36PtWp9ud8fa0hxUYNIMzPHKlRxgkxb4WHz4lLkATFn8HfcrHqm8sW/ub84Y4930dDZOWV/3eWlmlrQIwdvZxNxMcoKCO4CFMT+4nhEV3bcU2mQCBULnLgowkPjf+hAcaveTqadWn5DCA+ylhZj18NtAeqqn5Zee5HSuWtXXOhDRMZLhGmo2BIeIQfAaG4PhEGcoHQEl1TsC7BCLFVFC+zkHeaVxn/lwr5I72wezZW5OJeIGo0wygSYSaemyodGMRcSwaqYNkY/6RW+srGSU37FoFwe2bf5t87NCC88jsH1WU6f6+lO9Ar2e3q4AIhCiQDCPmQZZbIYhoBNuYkCi13lY87Yuc5ty8b+UvfcWf8B4BwYrJzsb+vDZYbu6ujMwJahpPi0OAN5+AdSaiEzz0jyNgdCnob9GQQ83EXKmlUFwhF2xy8T9TUFOvIBVIhpuEmkY8z8Rix7CDEYMExARIsLQURDjt1g38VQGTDcudrRwDhB3MO/lF12rhG6Y+LGqBoIY7mregPh0vNQiSjouyVFx4hLWhuGMlg1T/fmHTCAQduQ87fctlBN/hT2YsF+GE+mUZGCisqUlEgBMFwM3ZGRabGRs+gR3u1sjcqvzVv2nC9ErZduvnmm2dlctmrPh7D+e/0ic0l2Q+ceRCICjGNDyyAn6W3rJxVW1f2wyNO+d4vCrmGfz3nkAt3j2Rv9MY7BAVG4Q3nRjwJEQ6MJn4vQ3TEqB8l+jl4/CEaO6RNwbiQcmUsUFERk0RfQg2pEr22nU0GI3PG7zf+5uEqCV+b/72vIHXiGX9/s9/ruA2UBRCyhin/EQ/QPSQMwEZ2BaLgEPCUViwsX7D0iu1ZfWQW6tZ3vqb1d+wio6OGSMWCR0RqUOh14PGSGmRHDVHPF3uJ6zGRLifbRIB003PouRGqXACjEQEymQrfoL+9I1q/z2DzTgu1RunsCY8wD4TM1RQUJVXB4unQI+QVuABMhWmBOVBVkhouY8D4caGhc2GsXDr1o5fbPQaeJs8KIPSglR3FSmSMCIQO7t/MJKRQKALNgSKl/aX/Lh/f+EWUzxu1Hpjb81w/ze8dEhC+NeuUb1ZbbcuQWA51HHd0bMJ51SMrg4ggMZPN8WiZX9ivRqWO2PiDp/z4jlEptL2jBn6gR0iq7kMg5AXQMYRFzy7aCRQZCDPfgf0KsYv4KbLIF25m9RUuaiOfEK3m6TduOm6RsfwCBLXmAqJ7vBBjYIHBORCAA3gVC411WHT83oK1vq1aoyPhEb5y7fRouKX14SrZOcSLe3LXNDlfbt/oLo9FLEQjsNRZy9UDAUeLHJ45/vpnrt3Wc3r/iiMOL0nEn/IDALGPiS73mXgCGwN5Y1Quws1zwxEgAE8FBQuclXrjAbvPH56Ef+LEieHu7u6n+xOp/Qul8rZ1jVv6uwV61A+PMNmXksqgovar9p/raiLHvPjmOtEC6MEz967av7TqCb235YshxIBV0dxVpKoL4OHnGziHhTlEZoX5NQ66X8RQP9ROYQz8QRE7NDAvMog7azo6tGv+9rjmua5utzE/9xy/eNiNrf+18Oyvj0k0PxWIt+oa22aRsWA+MH2UvCqa421AvUrDxltSLrU7+pym65ctGO548X0EwjFrW97Qk92T0E1bAAHFYSLmzlklFKscE7exN0MQHnhLIndSKFJoMNFCYsCNHhrrgTJWyya6buUoLRxuawk3fnGwlV82D4SM3buftykQsvcoX1zOFoREgTDCAN3dUjSGGC/qGTPthgbPx9iFTSOGXN8AfN4T75/hD84BskJkelity4fwUwbF7FnMH0D4RuuEcXsVPcLtmX2bf+8wgLAFQNgFIMxv3KLeIT0aWpH8JVR1FA1A8IDq9FJbdOLXdv/xrX8a+UvfcWd8dd6ZF4xNu9QoBM+Y3OyV5yq+WNmDYCUqoEBiHkWelYVFQMEBm9OSNuNLlJzjxBcSeEAHVaT0Jqk6JYDkx5OWuLv4XfUZKSpDxOHgfSKxvK+vB/Elv6gNzGR1BXEpihxG2yNch0owpbm+3+W62spYGDuMKiuJni7EqbC5wwiQbR8YNFrxWNjwjr3+WKLNiu4x4dpt96l75eoZk8amW35jd6zfRYN3ZCONQIM3yJ2N4Co6P5A6xteSUFDqBx3dpoWHXa2otqJiD9BtzyazuSoHHub2vCCWd68TpklA1xOlMd+Fb63ecBfPSQr2rYuPmltnp+fo7HrC2Gm2DwWbITyBTR/QUc8Uohn6GRY8S9CCdH9Bt5tS0ES+GYyuLERRvWAcgpEyKY44UVYpfS+rxy6ddED4ueF6goX7feW60w9u6G1/MtjXoQsjRFSHYiIMmQYqG8lcuF6yQR1ACJu9Fr2ifsFvF27PmBEIx65tfd2XaJvigCLmEFI8Jgw6cWJalwCCfC0CgrAEQ6sQmyv8nYDJmKzwCrm28kBIyhK5la2tkaZ9BguE7116yKH1yY6nP+4RfhwIBUuDGCHByt3ziJFgabDG06zRinUgxDZMnhBULQsU8I64V2ziDfK3gtFxVzvjg0Jow+lESliodjEGEExRI4DEGikXqHi7akz91KJHuD2zbySA8IrTvlqb3fCcCmpUUH2ctnnLiLJ51pkEl+KWZ4Jn1KtHpdaKCYfv8aM7nx75S99xZ3SBsA3UaKvoO0gTzk2DYAwFVlyOVCDCE9i8SRmns1CPIo0iASB04w2F2qtYrG56EWJp7vWTKiW1XLCGqRrj4iYKFoDQjSswZQKfgv6PCr4Kb8ndMlyl7ijHCN8//9Dzqp3ET20UZmbahAe7jpeiDRWULeteMn+Q8wEJ/iC7pH7L95emm//+1cGIIV64915fw7sP31xpxZGbiE4WoEVJN+soUGDjfjWoU+kR0TMwEF9j4YKsV+3paJqyy5QL7xxyzc+JtRWnbehL/Qwl8QJbAsICJTqQGt00x1CMP7w5HdfrwYMMBnzLdx5TftTzr7mxwYfPPnz3/fy550KJrsoI44gwEpNQx+rIEcQUAdULulMwCiiRBneMHdctrCMfPCEl1YUShiEpAT5dCZejhZXUY4Srn2wJVF2996xbRySH75WFpx9Yl2lfFuppC/iRPkGVJBkHix6XmN94onjO7LyRhjeeAXBnSsrm1c3dvipFBMKdVq1d7k12THbTBAiELhC4Fau4RjC3RLiAq4WsCT09Ggtuiha5ESIR4+TCbxzgEZIaReHw1vZQyX6Nc55YOZidYktASHU0PUKFtUbFWnOB0F39bosuqop1rH0yNaRD6VkTHNnpBqUVhAHs9tt0mZ7CS0gKheiOxo977+5gsDwhqF+WdgPDpvrRy7UPHmbVmA/KG2t2KQLhYJ7o0I4Zmkc457S9a1Nr/6alu1QRv+aEwCqmZaRhY2f+ICBCTEqqz+JaDKrRcSdOm3nXp1os89q80y9oSnUs9sUHAGHewPNC5udXUUyACxKeoQlQZL6VJ1ryQY9h5rRAmFoYLxLoqR+iHgyCU4TbLaTLY5dFfVZIBaiI8eJnmohCZ4qBlZGm60GJLVHey8rkMjkr0ZMtD8qKk+idkskmkdMLL1RwqlsHwvZI1XaVWBNq0XfXvBBI9nzJHwBIIYalwHPQIezIGYgtYSNXPH54DY4A/zSMoNIJUy8OXHzfjYOdjitmH31qWXrjPXLOEk2YaAWboJx80E4w3prCfumHspJxM+iSWAlMatXLTm66dtmSwX4Gj5s2bZra1b72ulRWuiCJAKRDq32T15biggOBUOxXQlWK4hFQlfodOVNWWXHO26tW3cu/PfPDH+olnhWzpwalOXqiR8qgVRVuCb3ykGNKLxTpMTrGiRWa+Nhz2D2F/hbeNNNj2FrIq+tpR/G3d2fsf5la5V3JMSXPjyQt9tp1p36pNtH2O39PZ0jHhyMqS2EKhSpCsUggZH9J0nxshmtic8/Fyn5SNfcPlwxlzDc9VgDhmrVvqPGOSUwVcsGBc9iNpTN+zr2k4EPRIxTdSPj1wx2LFgRZArfvKd9YiBHSI9TDgZY2f2z/7QFC4Z/mY4SySJMg+0VAJhjD2KcHLbQA+WILUHiG/AGAIVtmud1KyNq45irvhqIX96sL8DSCuX8SCF1xkkjNJQDCQKAHyrluYuswvAizBMvf21h/0Of2OvvsYoxweybgZt47JCB89bLvTh5jNr/mz3TqIjgtWuUwgA0gJB3AwrRYzqTzTCxyxgi7g3XnTpm/5OcjfN079HSvzfvuBU3p7sW+vnbXI6Q4SIQIsFFgoRAUsFUI+k5B7pyvrKJ1fco4I9w07s2+NFRs2EB8+eqPfQbQAy+XMIXn6EkVjMtN7ikmfvaEsEKYqmf2O1EzYwV7Osf75MRiI5ne0yRlypXC47biEW4vEL698IQ9q7o7Xg0BAE1QNVRuciHT4qXly43dIEUEy1WBSKBf0TNt3uhXdpn/8KBbFb0967BdG63kC8ieL4eVJeWYUyDyqLApwy4QpeoI+NiUs7DAyytKpVZbv//dI688/cADDxx0g9xJk8JlZka/a31z77c0HUXrhgCEAx+QEFTQAYZHQAFPiV9/ep+vfO2YpUuXCq716RlHfW7PUnuZ3b2hsQp5kDY3R3wWY8R8n2ZDHEGvmmUJKdH3QogCNsFUvHZLxuqU6hr+2JlyHg1Uht/do/GbK0ajj+fy62bsWZtY9Selr7tEQfxRYZlEIRRB2gZjvfietQb8AGd6vklSj7W1dwVmP332YDz9LS1SAuG41eveRF7uxIJYiayIGxcnEpBbyHt8/LHAjjCGmgcL+mQinOD6jgIIWQKOMUJBjUYCLa3huv2GK5YRxiUrDYmQBuXLTJ/g50ELgTAIuM84Sic+kXGsHkx8r4E+ZLquyEYOtZBsC34j/FrwpjBrXODziP5vPBmrJeHE7DVmQQdLpAUQ8lciOMsqQrgDfBGT2qOAR0Ds1vF7Ev6y1ZMW/HLxcBTCO3TD/BR+2JCAcMPV55bpHe+sCWa7QqRzBFUhlFwI4rM5rVCQshQTvEVK6plHFqq+esL8R2Z/Csfmw0veMhBiQyP8o9aoguRoOHFQT8JqjcTWJ4MVhzfM/tWQyl0NZozSaMzroPsEzM4vufUgt50+sb1A+PrZn//ZuFDwXAXiDdF7Ep/LBHJKxA3mE4IyywK4CIa0js1A2e/iFbWnTrj09vbB3BOPYTwtccmBf5SzmQNJV1IxyhqPNlsDQRQkIY8uixhsADQkTQkD5ezMktoPVpQ0HT51COW+dt11bFVfXy88Gv/nkkmCk6VgY2ETTXEZ+a+shC32IXj5NHmmgfb6sE1TIe/Q3bhBZWpKvK609KR3Vq19pnC/f5lx+Lk7+5I/C4IDz8W7JD8MFsaQ4lkYDzpivNjd6HEoAEYhrIBKFJkUuZwe/akVabylbOG96wc7dsM9bsPNZ9ZrHWtf9fZ3VLKLigzPQ6SLsDIUO4kSCJnsDc+Gz8SiECVS8mho7E6nDKXx76bXJ8QyG1re8vV37aTA6xfjLMgQxs1oKLggx3n28ciaW/2Gvy/QiEJchAdB72lgjFCPBkcECJn6xHlIIBS10mAsyELBq79uK9HpvmufXLGt8R9YZL0wvwa8pzDnPvxVEei2NaIj//chASFLYo3v2fiG2ruhUeR2MccGaRPk9hVMFGjp4QkycZxbCpYSykSbeu3jVdcvPWbkL33HnZFFt+v73coypC/Zo80SKgm2HqI3JuQO+B3l36j4UlLR3B2qO2zny0a+H+FadJ+IdG68H2kL+4JaxTWgAslW+hGycsX2NOZdfd306kDbxtd9hlmlUhSSLynFaihCACAqxAH8OALsWsCWVErwkqqfPDvk7gT9FxzwQ1Rmu152DN2Ct8tEehPzSngLzLjEPGOtV5JK/OykEpT6otXHNc175NGhzIbp06dr7733norKMozr2lVVVR58LzYkfr9u3ToZACije72D348DUC3DZlZfEO7wq6g2A+GOCo8Q3tIjB+xXfeaTT773YUXll86Zvt+kcPYpyegryfV3SSVIeWAKTAoedQBKUDnrbuoUQtGr5CvLn4OR33SW73TuUIyIodz7wGPR8zDQs2HVO3q6pxEgDJrXbUxsQrUaZpEoPG+W96KAi7VI6bCg3utf4xVVx9Ze8lDncD+XQNjQlng317ZyXJQxcxFSGRg/K3h+oiEU0mlAkYuYG4Q1mF8yVMU0HljyjCpcAZkMOgxIn9BCgebWUNV+g+0gz1qj1bmNy6jkpTHAgu/0CHn3og8HC4dwupN5Acet+4Ov94Six1UNMgY53LEqvm/HjMCQgJBFt53m5/7s62/dS9MAfkL1JlgJAYSiMgrkvoIAYFIuqs0YUunasp893bRjbmd0PqUAhDqBkJsB+9MJIHST4rlNk05iPUgLaQNoXNrcHa08dOIotGF6Fx5hZbxtiSdj7KOQsmHe5igC4ftzj/h2RV/bEhWbpEjiz8sEClJ/Wsysv+mPhOANY6uUfb0p2znfW9H0py4xQmUfPpSM2u6RoftPl+KyVbRc5+bfpnlKIjmnzsg5yoa1E4OK/yFwjZXJVLcUiiAXS5S74ouqQrdNE7cnlmHLQFGZkaP3Vx950enDzSnc1oxBndHpAKpforaon9VlCtVnmCfGSj+6X2+uqa4+9f133v/jwHM9g0IBO/1+1cKQFL+43I8Sal2dglJmJ3mReA3goReIOCAhQOrvbZf8EMf0y3o6Wdbwg/FXPnrPtq5tJP7edvGX/+7tb9tXRa6g2+oEgAIal+uZMS6K3kTZOLHQ8QzCsZUtobFfb5pz1+rhfj6BMNKeXR5IdU72p3vAJsE9FgUleEa32DpzB4X3h9+HoZbOgI3g+LHCEMvtKRryCml4Iibtxt4+DoR6MNC8US3fd9zCx4RwaVuvdy889JCGbNuzrrHjNuYVQCi+uvmclGpbrAHsAuEbLbGqowdLvW7r84t//9+OwJCAkOq+nd546P5KKXmcA0uWCikWgxaxanpEWN1u7AyLXLSi0CERr8xuiHjGNc59svl/e6vD//T/zD/jwurkhhtB5bi1JdmBIq9idFVuDFYguA3r1PIE2CC1uatktIDwiLE18XYAob2PgGIWYBZeKVv18MVro4fKkm1uLcPheoQvvPCCMuG5hffF0t3fga5eUGZU6RWEUiwrxRiXiY2TeZQZliNDRR01WBLv6E0ZeiCGrQP9qTg/ZLShYcCJrAEGDc12nRyS6Bxb8/httJqJd1kxVbOVrFXugedEEQ5a0gI4eC9uXdeCiMLBZpUFVcruJrLs7U3VV+20PR7K1mZGOBy+A/VFZ6BAtwBBem/oYSg8J1Sn4Wb8KzTs/QE8zI/66+RP+I8Lp39hnJZ6MpDoreJY2U5GQvldeDNQArKKCDZUFqLIgeYtx+8tSEkptGoxvX/SJk791mCrogx/ZktS75zD7tB7mmdwnuTYkxG2VTgUkGx4hRSC5AB+KsRgAQCCQe7RF8h+4IS+tNtPnn51ez73xXkzzvT1tNWO9SackJXFpCISMiuTylVQsEKZhKmDxt8EuyhLfEp2teLznh9PJxGTYNoS4tJCKEZvkpwM67xiTKkaDYc2bvSWfmkoQFgHIBRVfbYAhIxVmyiI4GBM9GBweUto3NHbYxBsz/gV3zuyIzAkIGRn8rY3H56rtq28QsemT9Ui6yKLjQ7T18CmaOQ9JR1yRnqFNvLLEiVVJ1dd+5shqfuGe5v/vmdmhd3e5S8NhT0ZqExSCUN4HkjSdqQBHRGTkT6oNINy/94nNW9LbPGfhQDC/g03uh4hBQQFIOSZ3covMqxaVqS3WIoqVtO8Plxz2B6jQI2umX/E2NJ46xInbQII3VZQowWEb1171i4VfR88EUr3T7CBY24VjUIXd0pgKWynqhVVhBC/M6mc5f7F3C4YQgHEwizK8gnUwq+j1U9pOJVwpFJRKxMbC2uzsiKHF4pbXZQWQUpCAGCHeJrJthMk50RdVuaNZfE5+BtoUYI9m8n2hGMzxl3z7C+GO2e29D60GYuBJnsaNOk+hWoh7DpBmi6vLO0ESJ7U3Nz8MW+wcD56PiVrOueiWMCsEOyUTBo95hSkFzE/D7EmB/F1elwMgXpQTF1lwQVWFvGXZRKh0jk1C397w0jf06bnW3PhIWfU2vE7DDstov4mVLlMBzHR59ALxscCWIvaq2y3BjDU4Pm3aNHTJlz9zH0jcW2F+FkhLrZJPO2j/Wnp8Z70X9uOU5z0kpyTRg16aBDYAQQG0aZASMDGdY4IEIqSbkKRCk9eACFCAgBbxRd8rS1Uf8zYufetGYlxKJ7jfzsCQwJCXuqKyw47tdFO3Ocw50nQJTwFVV7c2GDtUlEFK83HrgtsHArLuT9U+mT5NcuOGu1bfXHRZbVl/avvKNe9del0pxNBAjDKaCHnG+Wtcx4LugVyiSLdDX3AvH3+gGe1Wn3+gVf87JWtXRuBsCrxkUcoJPeiXVC+HyBWohfNZQmJVDfmSuqaN4RGEQh7NzwAgNnXS1UbN9VtJNS3Bquvmnz1M3OHOv7vXH7Et2vsniUaAMkGeonGP272c74JL6t5QOiBZ5ylAhKbEwVDZAqCpM2RE8i2VQMFDwWJrPBaOXUwjty4CC4mKpig4x08THhOqADK+BkVeiI2CM0KYzUCCFkBBW1pRB9HSNYz4YpX141t+jJSC1JDvcetHY8Y4VTEoh4DJTqW9C+9QH7lC54iy2jdefbZZ59bKKW2uXOtv/GMUmtd87KAmdsnpMDTzcaRboF5AmZY9K6EMcCyhIofFURSSJlAikgGxtS6fjT/rZtyxMT5S/41kve06bk+mHXynmPt1hf7O1v8YT8aSwP4ksjVZGf6QDgiJVFijQavF+kACr1+LJ8+X8nj9d+Yefxo0dFbut+2yw++MWqkL/Si6w0pUhpgLHcsTKwBHqEAwnBow0aldL9he4SY64LCxqbGOQ/JExFRUKOMj6t64LV1ZQ3HTJ5ZBMLRnJ876txDBsLV80/8Srh59ZOqY4QDmIii6olQebnegEGqFJufn1hBvRV4/V6v1p6u3H3/8SOUCLylwVlx1feOjvRveEzNslURSDUko3LSsmqDZqBMGbwaL5VfTIjX4Ekg4X9N1aSmL11y61bjCG8IIGy+0Z+AuIIqsjwQciNn/zwh8wcQogiVAMJsSW3zeohlRs0j7F0PIHTyQJiPU26NGh0GEK6+d67P9/5fbg+l06cqqPTCRGtRLBz/RMIzgImeqAZ3JgERgxcxpgwLCGBXYpqAis3eQbWSEGgkvjhO9OAYcyGVLDxEtpBCrIcFCGQUFBd9F/GsSD+aGE9W3eDvWHVEFQnXzK8iEEK1ipquorIPnrEVLM21RcZ+ddKsX/59JBcOGveeCBC8HWAYJbjzukQVEXgiZWVlq/C34+ANvratz3x35rfPqPGmfmH3tXks1I4MML4FI4pdJkTDW1DBLKOXhBemBhBrZWFueIx9eskdTdO+e95opE4Urrlj0elhuXv9y96+tsk+xIDZ6YAUI1OBRJcUthujy4U5QGolA/LSjlam+9XSyYMFmW2Nz2D+/hZEW5H2xJMlmf7Pe2FMkAhV0MeRifg7DgjhwfPzCIRa8LV15fVFIBzMw/sUHDNkIGybf8L4WLLrISOR+LyN8lBUj4q2MFglTA5lGx16KD4WxsQvMyriDHoYIoCyc8YueuK20RyTFZed/IvqTOeZarYTXb8tKcOCxfmEVdVgk1h2+8YCR1kwAYT+2NqNU/eYvO826jUWgFBPukDI0lduI05WhiBBiY0fMn/+zkY7olyktrk1tjNUo9e/PtL3S2q0Ch4hwnL7sgINP9tthLGVGOEwgJCinOq+jS9pKaOSd2qI+KfbTkphGyJREgsGEItuMw0AJddy9ArzeVdZVJxh5XwFmeuuwpMVOZBEboBWwjFu7UbQ6aK5M9u7C1cTRgZ8QvYAzMURswJFylQD0KcEQnq/BEIWJBatmgjMbGbsjUhxpWlB06KH54zkeENBylJil/b09EAcCuAFgFMtSm8Qr8Xf+MY3flTIG9za5/715h9WjGn+4NZgqnN6CDFB0rk2PFkm4yuIqQrjgfpEehyghRmbC4SQg5t12vvKa0+f8uOlo1aZiWkr/zlv/59P9ElnK4i9ZRCTowgONbYFA6ADrA3GLmn8IAXEC+O3D7Zv1l99bc0NT8/ennzCoTyrFXPPOrE603G31bExEEKjChmFHXriPUhLQXA17xFS1CPKkY2aRzgACPXAcniE3yp6hEN5ip/cY4cMhGyb0/GXlbfpie7TgmxHRG4CLy4UVk0gEIpGk/kNMYdCww7UfZZc/ud0bdWxDRfdPSBSN3ID8+ZPLmqo7Wr5e6B7fQN74hHouEXTemNhXo2NL5mjLehb2JOKJXX7o79ec/BVJ28rRugC4QZ4hF1uJVCmEdCzxOXznkVNRngmbuURVJYAEDaXjk76hAuErQBCe183RghQ3opYhvG4ltDQqdEPZh11Znl84y98aAEjak1iE6QYCHkFQhylMnZCQONngzKMQ1whY9P0syIMPMKMwvYyloR+xcJzIxCCsJJ0qDLEe0VN6vEAAAAgAElEQVRwGVstvT4WyRLltFiCJyAlSKkGGIOGOhRePGPNnE/Ck4TYxgVCN++MYKIFy9G0t/RvydqG40Yq7QC0aAgX9DCA7zBSohncH8eB38MrfB+gdQpSKwZdMGDDVccfGMy2/1qKpyqYiqBRlIEHl8W8wU2L/DR6v4wTctzogWqgJvtU/1NabMx3Ki6/57/EOCO1elb//+xdB5xU1fl9b96bmTd9Z3tldykCJsYSY0/UWGNvYA9i1IjGRAWVJtIRSzSaaCQRsBfUaDTFJIrJ3yRqUGNFpcOyvUzv5X/OfTOCCOzs7C5BnMmPILtvZt6777577vd95ztn7phzizpbn7SDtMPo1AiWpg+bEBWN9CrSt6LxH/detAhhvpGxK5tL2tvUmmOHLVz6wUCdx44+5/0FE9yW1s0PlCeDYyyJEDZLYQmlOpFa56Z7WyAUZBl7vqnRTPtENjVKtRtRHddZs4wI0+wjtFrea3fVnZGrlulgj1Hh8/s3An0GQn7dRzPHXNIY8iwxolEYShhipVPJKMMrwYIyHnKae3Khs0I3ka4MJcVDpc1p58V1dzzxaP9Oefvv3jz33BlaT8csmIySXC/FQbaA6oPQAXVoNikNb0DuvDXUDQNBCv1CuNlc8pMRd/+1V9PgD+eNB1mmWSfLUBhXiOrqYiafd8MKXz59QUsUVTZD1WJQ+gjXI1Ir6dn8aDoaAxASO7YPhGw3ECr+qOE2m0pmjrzjL7NyHffXFy50VLX8+U81MOCV6fkk6nm6YDj7+fhShQwWIximzpDKE4ozSH1iwWQdzWRD6wPaC+DPK14ELpJeyCbWlRr1jRMViDieGhda/C2MYeF6r0KzT29c1zV4yFhl64TYYOEsoojqKVYurHlUMEhNZm+nXHrOsFuf3S5xJddrzx5XV1d3IEDwKVzLUP1+0xMxzpQouI3JWUceeeSCXKLB7Oeln77OsuG/H99pivgmoA8DEsqYJ6IvDrVCACKfGY6HIjQnWf1ExIgxSRgtcU9R/fkNt/StV7Iv1/vG/Av33tvje17ztI1QDTCzQDG9G5qyJs0pmaKMyJl+1FnhFFnnPDekrZLHWn5Pc2PxpIGUfdveeW+cf/4ZjvbOx1ypsDUA0XmHwwbtUwA1apbkmYoZkakRKhkbpnyAcEis/U9M/Wf7CIWbCrMtJMDjfsjc5GH+kuSlWWwftDrcp+fap9iX+1E4dtePQF5AiMb6IcO6N/zd6u9q0Mkx2OGyx4wEZ0waptGiGcNME3a5VgjPhgLQDiyu2dhisBwz/NZHe1Vj6MtQtC/40f6Kd9NzhmBXQxEXDzwcATI7AcpcVMg75N+QPxIsPbPNRSm0ns3OspMapz/2Rm/f9eG8cddV+VoBhARZMmGZGhWSuboIMB9E1g45FgBYGNI2dwxSQz2BsNiz+VEU5A7jOQj1je1EhP0BwhVzxxwxPOB9xRLwYqUhYFH3kWxP7ox1uy2mR0liYSoqBj1FE2yDYiC5cJfOyJABn3B0B3hsrRLC9CYnHRcuppaRHBQSXhGvT6REk5RsAxCa6JDOVDNZengDRlXcQxMUUGjYGkVUL8zamcPDwhylJFjVsBkl056f09v9zOX3MM0dD0boIoCfKkSVkRrNRISfICK8IJfa4Lbf8+6CSxoakj3PJTpb9zdCWc+cuS7WQj9nx5JkJgxfsXHjXEbttDVpecvnGH3GgfP7LjCey7WCDW5qefvxhY7uzddajCAfwVwZJoSIxlniABAmGM3TNBrZHUWPjGXaApmKe3rcDT8aPv1Xv8vle/I5ZiNKMYnOzUsrpcQRBkj6EZyMSN36QlBzoq+jYCLzk/X2iSwQkjXabOhb+8T2gJBao1uAEBwApO5JkrNozg9bi8tOL/QR5nNXd7/35AWEvIzWaafdaw97fiL0LlGLMwJ8WD/S04NcoNlZSKoxHihQ6Cnoq1qtUk8i+nywsurKodOeaBuI4Ug/fZV93fJP76o0xy5Lw+JGpHCo2QhyjLBAAsswjKZdp9OKlF1a8kIw0WArwU7b8bJcXD4ml5TTe3MvhrJM+13bAiGjsax4rpB5AmOSrtZfdSBcOeO0+eX+nika2KJ6YogpZd0Wh4uALvKdUXlBTStBQ120QERFPyUWIyh/UDBbGM6KbYguuiBeArz5yvwA7zUjajVA2kQxWSUf/m0AqCqoocXAojSb0OgtRjkjrwXFIr6T7h/0a6MItwa2qh8klFRZ/ZurtYaT4c6g9/Ln+aLyzF/+8pd5iAwm+f1+qbi4GBKoIRik2gmIsy+77LI5O2OK7uxrV00+5cKKRPhBJRI0a0zTc/OA64+JRR1tPozAMQZkxsawkWOvYUpzSUHJvbCj8ZibB0twecPkscfWyd6nw6EON+uUFDIw4rtNMdb8+Uxzk0cvzojep4p+2bABxB6l5KOAveLyEXN+9e88h3uHb3vjnmuczjUrF9ZapSslbEJTIF+xT5U6tAnsgmhHls6weAcbCNkDKlNggA31qE9rNtdHLUWlpxWAcKDv+v/m8/IGws+mjtnPGfO8rCb95SqIIqyRieiLBAYRoQizIfRFWYX7tgFRA3txDGaDFLIX37u+bOSM/a+729Ofy06j4XvdC/dPqVVCU1ClssRCPQKMqNiRDOu1AwPIOkl0FMZhf8N6mWavkIIgV7QbHOP2nv/Mw7l8/3aBMKPOvz0gjBVVNXcOYmp0MCPCd+4ZX1bR0vJCUdx/aBqRECX09DYHndwiZNUYCaJWwshF4cKI+p/PYE0kzRZVAZuT9S2614dQV1NV2EdgY5LVhqRLR9aWRtQ3ZYiKs2EatUHslyQWwiihZcaiZwWGkmVJE2NZ5FaZoqPTh+7gzY0IyRwhqI5Y6dpuMKV6rDVHjpy37PVc7uuOjhkyZIgbALgUKdDTmCbLtk4ABFkTPAemvk35fv7aeT+rcPhWPwhT2pMZ4aggm4ncAttEWEXN1NyjdIHAXGZWIxxJScVFVZvXKK6x+8x79F/5fvfO3oeeR2vt+g2L0/72c61gsJLVmoaOLO+bLiPI54nRPFijop0AkRHuBZO8CWfZu61W1/X73Pzr1wbq3CjnWNbTMdklha+XIh5TAkxR3mO+AmjpMIJEJVNkm8bVYk81OBFhNjVKIGQ0uqWh3rHSYy85teLmp3KyeRqocSl8zuCMQN5AyHRK68pn7lC9m6/RkgEsjjShRBuBkGjPGPVSJomLFyYrDVfJAhQsS5sr3RlTH0zX1c9vuCE/qaY1eFAM7e3Xlkuxm6RwtyWKBVPD4kszBmi54yFhNChLAUpFoUcrLftFbxRMkySfVvlpa+1eBx3y03uRA+r9RSCsCegRISMcpkYVRoOibWRLajQbEcaclZs7XbWnDIbW6GCnRj+eOubkurjn8ain2emG5Fc4ohsEM7LWozmyX2gGDMIEVXXQphJSlN+HKxvv9KUsSZgRisBBc5nSETRvxlMmPfTL+kNkya34URoq/ejUxh3BL8N6xJGwFckJf1hyWpCI7eg4qkjumaNh3sC2Cm9AjYaN6Pw8qlaLD8X5IX3LGmKAcWN1w70VlRUT++PZBrZoIyLA5wGE32J6l+0SaK5PAQivRTR4f77RYHamfXzTmJOHpLsfVH1QnBFWZgykBfUq0xyOSJE2PwywAcQ21Lhl1Om6Nef9lUfWX9dfQ94dzfiPZl14THWsc1nK0+7WUAfTPS/1e85Nrh6XZwyjM0oarEGH6YllL13lMTqmqcNPfrFx/PiM10rvz9b2jtgw+YKh1mh4si0evCyRCmAO0eUEfg4YI94LyqvJZLai7k+Buu0CIbRGm9W+SazttEbIPmG6oGDeC2UZq+2jUFHFaUVTHl+b31UW3rU7jUDeQMiLeHvymG/Xp7r/YIl4K1hHojQRqfbcqdFRWhDikTolM96I1I9wMIdNEUp1AkDCRm2F11U2J2B3//3AyYu8uQzMcvS3VbWs+7bL130dWG5nGxDpMSWrwKxVxa46HgS2QUzGaLShyRs7V/wcShSoP9FwDd9p0CLtauk5e8//fc6UdB0IWwGEPSJVSPJEb0DYYa46eeSMB97L5Zr6csxgAiGp9J0zTl/g8HXdmE6GBIsRIbwOPEyNIgoWxsGMCGHEK2p3mhxOllX9yD7l2Sf6ch25HLt24aUjHe0fvmGNh4pMqFPRm4aMRQEYMhGXzF22VeCc0HKgArh9itLcXuz+zqib8pf0Q3vEoUiDvojIr4T3mvVB1C/fKC8vH/fJJ5/02xSXzOuu1zfe6fC3XU08Eday3EiK8CPj85mxHqLFF6wowTJVYIxr8XVWNJ4/cuojn7tc5DKOuR5DJRzHR6vuGqLEr04CcFiDTkKQieOtoqwg2lugH6xnQaBdgDmBZADSu6j2wnItbXQnm0PyA4gQFwcbze/3lUTz/oIL3MU98WOsofBMt6Z8I+lHOhRIJ/wREZZGGUFT3YYsXqRHVRCrqLWrv7aNCK0tzYbSQ3PtdaTW6I5rhEjDM+OFSFkoy2BBM1sda8Oq/RqP1b4+YLDK2Kh8YS2NmKMphQ7H27xkRfdNow6XOQFq9A5eIKl9/ru0oudTomroc24edH3TKYOt6/A+OLzkOg++jsf1CwiZmux5+Y6J1pDvViF9i4eZpAq9uZ61IRp7InWByZoiqxA72x5/XCorrpBSKHZTjSRhKYoGFOWVoKq+qqipd5Im82d7HVDZKW2CPD9fn/SoGyzmIkn2N4ZT3n1KbdajI+2dx9pTqRJVCDKzdsVnEw7gUfSdid4zTFZQwIMRMiqhfQmAjKF+mMTPI67ih6rmvDy+L1Yn78374c9q/C137w5AuA6Ei9L21Y9C2efwgSbLkARV37b6d85wzwHcdUfYRI3IQI8ImRrVI2BYCovUaBy/C9kta2MlFUfW3vRY3unCHT14y++6tmho27uLiiI9Y0wUw8R3UrSB1WdVhJ5ko0LBBhsfh8UsBdAHl4TAdah4yIXVM154PN8HGozRiV1dXQvxfiXTLhECaeYn+NlDA9U3t2nmmINKg95n5FC4Tka0IezLROoZkRh7VIXwAHloessGjOtQh1Wlrrj8WrzsgPOGTvvFgNTYtx2jzilXjHLGNjwpJbz7xrAZQqldvMwZsQO4UYn5kARphj2dMrIsZpQ+Aj6IJ9ihpq5AdN5o7fRKiZeTmvHvMZP0Luidq4YefFVQ6rgvLY15OlskliXIprVtqNe6wuv20hLJQ5So/1RXyvD9dDBgVmlwzf5V4Aasq5GOZS3ZIDkoUo7nPBaA+hDqhaylCnPqbYHQbm9tVosPGSggFH6EgohH8hYstTSk8iVDSxpOIkksMBARQVuvkNlihgK3D2EB/k+v/G7zEo6/W5Ik2d/C61TY9m794lbvc6jnwsqeG3x8Cn0jQdn+1PAZT16T7zwvvG/LCPQLCPkxvjuuKE01Nz0DeuCRfKAN7IvKkioE14yN1cycohGavoUmJ3q/sANGWsOK9EYaO/ww6ofWIienUDSWjIWtRoMn4g92Yt5hDVBKUSyyRZNJS0JOmUNk8GG6WBkdgIaOSSh88LhYYJYiKcrnBEQLmsdSx5F0dFDszYgMA0bbZ+uK7efuP21ZnxrdCYS1/s13mwLe/3lEOJhAuGryGcdXx3teNgY9gowgI53NRY8u4iJFJkQdaTnKNgj4BWNHHnKXPFgx54UrBgogtn0410894bKiUPtvhIi7KFZSyQdSbIjyBS2LZCzqY3KOYWNE41ufo2JZ5dy/nNuXzU72exkVu93uv6EedLRIwyGTAfboXzG/xjc1NW0eqMWDmpodU8+6SQt2LTChxh6juwHFETJPJFOmQBuk+s0ikyKjiZxpSNoA+Vw1k4bMfa7PNle5nDvPyzP13NNNsc6liUinK4n+F/Z4UilKJQggIuRmBOroOB/0dFLqDBtNM23XIJFnwPNMUfoUH3oAt2oxR5LpZAfAYXU6GV+TjsseRVbB9UWhXlGqUqpplMkkDwtG/OAOYV0AyDHmN1CfnSCCzyYQ8hyYGjVgLEiQMqE3ma84heV3AIQtRZWHNk55cn0u173qppNPqAm0/ZntEzSFoqUTa4KCKJQx5jVg/OMoaXO7b0KNMo5SEOdcf18661V/vLZ96Zsi/RfZ4zgP+HOfVvJSR0PtWX2NvPt7vnvi+/sNhByU1RMv+Hapwfuswd9Zr8E1NYFIIo6bZ4R2YRw7Rk4WwfpjP5aeZxOFdtbbTGzWZdsFs6mf32w9DaObdHLXj7RHZrLzL7rEsylb7J/MVrgBeKQSKE1wIYkCAENcGDFRYxAKtiN3A5sD6ELWhDcqpivrb8+NILP1zX5r+pifjZL9d2sBH4gZSBlRdgr0fhKDeOLYoAlTU2EwzRb3ourNHc6aQakRbg2ECl25ObaCzPBFZZls+wQf6k5b9S3DFv5h9s4mMNN1LctX3mWPeCeQuZhAlMWUYBRRgeicZ3UImwnKy5oAgAZsQmKI8LuKik+rv+WFFwfr4Vh380kHV6VDL0W6g6VCQIDN3GxbSfolCw2Bo7pBcDRKmg02QogSkq6qtevN1afvPe3BD/t6XkOHDh2CyO8jRIB22vwABEGGTV/b3t7+675+Vm/HN99xfqm5petFayJ4iD8Whk8hIu0YNlv0fJQBOHSoQEaDzGwNdW7+bYDGapdsW9NWXnPWtwfB+FksuBDX737vsRmWYOeMiAxxA8xzYxgzCc31Js0BUhPay+OQ1dOyc153m9Hl8/gJ7LXj33rwJ7Yv4j+FPD2Sguwf1VtoqDDE+8m2Gp2Oo79Iy2H2QVPQWgPSFXVFufGlkpXo78MxJDExPUrg1fVACZ7cvMHzxG5tXW11HDbq5hfX9XYf+HsCYbW/9c8MuMT3C/slfFoGCHmOeiqerSSsk+pLJwlj2wOwXL4zC2zZY3f0OQwnxDhmvhP+9WIM/Bb3i03DG84uAGEuo73zYwYECLmL3DjpjLOrTNFF0a42N2QmJZPVIvUAoKhSIWpJXKwpRUa7IrYYYKfL3b0R0Rx70viQ8MVjRVVCSJhlADIzQwQ5QxTu+Xl6c3cUkaGGBURN+NFaB2UMUKpp5UIgYEo0jgjS7q5ItIUss2t+8dK8fCKXlfMuuabSt+meeHsLFkabaMsIhRkdslaIvrb/ARBC90qkRgcKCFfOvKSh0r/2n+ZEtJr3IxFBOM6omn1j2HXE44RUkgXoWcfKHKIvu3t9q7vsiJHTlw1YpLTtdG25Z0xZanXTE3bZcAzvO9syLGiXiMZAjeEcwPkga4CdeghAgnowfh81uZLxmpFXlU367aK+PiL0H0RE+CTqgxCygc2Ppv0ZgDi+o6Ojta+flcvxbTPOudAe7vkNWigscbCeDZEuiBBgpOGuYVAcMCaG0DWAwGLOpKZZAnC4paZ48t4R37li0mDpkL5xzYXORpv/dinSdoUaDYDVC+9E1CnDEAGgMbUDLhQBOlKA4SuUpGjqC9CAvL24bB3o9OdePI2ZwEno8+IH3LDSiYRAyPmGHn4BoroziRDF14cPEZiKZ5xygpoNqkPRcJPdblvh9XSdwSyPLqP/RSDkamJx2PoFhJzrAui2AUJmRMicZlTMTKWwYfscvnO54188Jgv820mgfn7glohQX675bxJ3fOai58tPmT5mV4uf9/0qd/93DAgQ8jJZaK9e1zzWGe/6lRYNu0SFEJFZApGS2OsxnBfpDQIhqyGM+ISJEI5k3SmbGsgC4pZT09sxdBq3boSbYYpR2YT6jKg/plAzslpB9cfGLY7CflRoUcpg3Nklj2y5PfCNc2fky2b774xzrmmMe++xhFD5wIMBNiEujsal3IFy97iLI8LO1Y9gO3zEQALhuhtPGV8T71nsD3olKyI9OFiJVFQCDQ0yCBMEQgN235qlSKS2GfUHTa55TaOHzxrsHWnLTccs1BKxG1OoAVLrlRtjE9pwhCWS6hBC4NyYWG1om4EkXATM0pCl9MmOmoMn7H/dzJxbdNA/qPz1r39diGhwIlPt+BPAnzN3ZLM0EI83CSKOru5f25KxsWrCB2d4SAzgYYgEkYBD9BfDwkvSkg2TP43IPIASQxoRsKWouHlz0HTOiDteGvD+vex1vQON1JrWjbNLYt4rg74O9HSiL5QuJEhVKsj8BCHHlsRGl0BoQ9aF1muZXhtI7GGzy/YXgiE+UM/8MM4jfwAbK0gEZdWGWL6wUkqPloQEQaBi2EijaxwDIo7D6pKiITCKE4bu4tLi8SjCmVOR0OJ4LGzn920dEfID+NxbXLaW1Zrj8HwjQh0IGRHyL8aaekTIzTt/p69b2e37QMwE/TO2FxV+njoVTGJd+YbraUBzPld5UMlYeeyy/udnB+4SvpKfNGBAKHYqIM9sfGn2paXp0K1pf8DNGmBc2Pdg0gjqva5QwsJ3tjk760ogph3v7+d58uweiQC65Xd6NKiDIl/MIqlWpsZgzYLmZA2N3VywaSia0qwpmN78MlxaPWNYjqzU7d3F1bddek1p1/p7Up2tiEYgQYndGEWThRMDJ6fYkX4xNdpuqhwU1qhIjWaAkAlmkbLsJTXaZq+csdetf9qh4gpTYR1vLX7aHes+i43UcdZgkJJTsRDJShQpUSwuWHBQwMWDyKZiRItWS7LTWvK9hnkvDEpf29b34b/XH3NKnSn9uCUacCQR8XEpEo5aTFFB/YQp3DhqbEIHljt4ROwpm7tlo9F6wugZy3LWwtxvv/2KYMD7uM/n+wF7IREdPgmwvQpGvD2D+XR/gNpsWSr2kMsQroz425F8Q38kIr84GispQYeQXKSiKXotgWjIJn+XFRZJ1pJnV9saf9xfAYGdXdv7ky9wl8a8C92myOWR7k7UYplpoQA7dko4n7CYe9CZARAaRR2XzzrqxwIIMylSPPtCqF1EUFRjwkaKgggCUNCwj9qjJmr5ero0gZacGP7QZYTkoRiIUopW0qNa7BPds3+3pO3aow+3yaFlqWi4ika82YgQQennqVGLw9G82mo7oq9AyGdaL9PoLKEsEOoi8XzadCD8QhzItY0IPgB/s/6uJ4i/+DfXUFmwpyhriDACG/2AyfFs5Z2vjs0nyzWY8/mr+NkDCoQcAEaGQzY1n+6I+eeHezwjjCB8iulDEg3DDGbyM2jHnHdC7OC2JAayO6IsIOo9VpyY+jE6fV8HQl1thI7fEHd2FAkt0QDAECEMxJ9t3i6z/W7TfjU/L7kot37BHd1ARoQN0e57HKiLRMJ4QOnEDnYGdQ5VoTaxDRAW1za1q+WnDEb7BIGwonPtY8lo+LCBAsIV88YfMLR7/fOueLCOlkp0JFepm4odfBICx+z/NELPM/vwG5B+9qeNb3pLSs8ezLRo9n60LB5fZli59m+qr+NbNjB/Q0G/5HS5RWTKnkbed0FyQKTOnkJ65sk2eFGW1I6vnbFsaa4PZn19/Wj0D/4OkmojEQl2YYG9FKDz+1zfn+9x65Ys0VIfP3O3Ldz1Y9VAIhD644SNGeY2XSnAyhTeuFD6cTgBkHCDQG0BjOuSZKut6rLR8x/P+RrzOcf/Q9Ta4PFfW52WJgYDfuRs6VfoBVsUzyHPUyze2RqW7sqi19H0pKEukcf/EmZe+IdeExSLfQrqMKI5nzV+HofNMtsyMAYiFQ9loZDsaEqWVEwu3+vkZUwFexZcMDQdaH1BCfq+qbDFhyL4jCS3AkKT09qyzuLMOSJch/aJ8mgLtEaZqdoREIIEtDUQfr56fhm4tgWyHf17W+ATY7kVoOrrnv75ev0yA4Q4j4DF/mzlbX8vAGE+k3qb9ww4EPLzWTNsmn/OPrZIalo6GD5HiYcNxnQIk5xN0HooR0cBsYvKvES/tGhQz9QBMylQHs3fxajWL85W3zlSfFkkVllviOAxwgMDBxlQt5G+Ky5bHfIZplSOdr/Qn8bq7LmtXfjDnxR3N92rgTUqYwfKBVfGbpXOB+yPJBAK+xdxaSTL1Gxqs1SdMmra/e8PwD36wkfoQLj6iWQ0ekiuQNgbWeajKadPqo55bjcxLWpBtglATwfCEBZeJ+yVQiFQ1dnIjhpRkpJ68MxriabvHvHdn7BGNehpGTI5P/vZ4ffWpEJXmRGd8r6TzBOD8glZndR7F7Va3Aeqj1Cj0wciRcRZ/rJ59PCxuW6E0Eh/KiLBh1ETLAIZ4T6QcCaBKar3aQzy670bzj2gONL0YpHNUI0JLSX9AaQEbYKZiJ4xyYT7QnKIktl8GehWAeJKl8nxlql879Mqrp0/KO0U2ctmtmf18/ed5DLFZxkT3v0SkW7JhvQoMpgiIxFHlKcTe/W0HXuJqcubrW/pD72ARfzR9Wb1TAarzaiDghTDn6oiesT1UmYOUY/H7Pq75B42s3L6/X/PsoCpglO/eeNLUk/r0VZGbtsDQjTUr9WqDh89MzfWaBYISUIhEKYya9MXI0IdCLOkH0FiFq9dA4Q6o5UsUpKpUK/VHM+VHVReSI0OwLM5KECYPa8uaAUGm9ad7Uz6bjYl/Y1Cnkkos2ArmWQzLIrsnETYIbK8QFFnEiBE8ZyLWzZVQrDDW8g2I3jydyyus+ZAz0E6SkRQcEiq9mDUYHq6y2a58xsznv1oAMZHfMR7k8+5apQW/pVv7SqpqKhEAGE4HJCK3E6xOG0LhHF3dXOHsfKkwYgI2VBf7m1/Cmmh7wg1nxxSo62uytkj5/3plu2NByXVGrq9Dyd6mk60s4Yr2IFg+tow1mifoD+dgjSdCREhI2CSVMylJYmQu/L88puefGagxri3z+medd7JWtu6l+hQTxcIi9Gu09fRnsPUKHJtombIeo4KFZIQFo2IrSjSaag4fN/5T73T2+cTbNE/eCPu7QLc02b8GYfIcECcLHr7bv5+OYCm8U+3XelMdv3CGIPtMFOjMO3VwDzzhX1SWqNhsUUyhWhQrEp+gCOv0eJwp3vszvmNe597y67YlGxacNFwtbVtYrEqXfaLShoAACAASURBVCDHI06iBhfmrEVTEhEta5l80S2TnQeMepRMJkdEi1h1hOkvNlsqyHME0Cj6D7k2mMg8JUwq6W6/0bqk2V33y/234wK/bsrxS8uSwXEyCDvbAiG/3eywt67VKg/NFQjX33DiSeWh9j9kI8LegZBXqF+LeOWZGt1uRLgNsHJ8GV2LtK2IqRk1q1LAanu+/Ae3FMgyuTxgvRwzqEAo5geiw7ULx9bZfZ3jTMnYWdgpjkjHkzYFBq3Ir6DhnjtEACFrBiIvugUICYp8ZVlmKAeJCcfJY6ZqDFOrrEMqSmvSbH89kFR+O/yIIa8NtATV23N+9OPKePcvzZGgGkevFK0VHDaz5PN5QesGXV+wuMBQZQof0J4uKt3UJledfOCMu3KuT+V6L+HNNrTMt/HxRCx2sIGEHTb68pGkzBVHj0zSjB6oYODhtx5L2cx95z89a3vf8eb8Sw+tCnb/yZAMu5JMOaImJRY2YEsYvRLUGjWwaZ1CoPhspoRlq33Npqj6/QMXLtuY63n39zhYf1WWeENvInU4hOOfjGKkEfkB7sR50bfQApIPZfRInUqgfhWzOLFrLpu1z7TFM3v7/qOOOsq+Zs1nj/i8vjNkg7KkoqLyZ59++umgeQBu73za5l1Wkej89FFHKnYsrY8oyM37a3VAVJwSX2Rn+jH3jVYpCqZsGn8YLSacJeu8xWXnjbz+wbd6u86B+H0a5Y816zsPckqGy5VE6hhDIlyL+YN5g95OpjTRWqQn8UiuQWSIf+j2WToAcn4mBHkO7Rh4D8EkDK1ZOsPIBmsz/v572Gr6bf3e5/99R+D+wfSzphRFPfNVpMfpl0j9DpEiJ5+ZTHK4T3SYy7476ubcJBzfv2HsSVXR9j/Q+kpknkDcYWJXj/X0+qZ4vhiRZUs5maiRzxzXpL7+vUWAfstd2S5ZhgQZppe3ap9QERSELK6nG/a76IJdsQEaiHmzO3/GoANh9uIJiOtvnVCv+toOMEe833Ol02jAT4yORcJmBU27gkmKVCOZmNQrTaLJnm0KJC1wMU+DxScj7RnCDlCDqgNmRk/KbHuzU7a/GrG7XndUfffdfFmhvd2gf9914+hYT/dhaBlGtQbRKP5Ayi2NHjPxVh/ysE5XSSqQiMlwYZD9EUOnfdS3/nLIRT/NScu0t+/f+vfpP/7R/Nq/lh1nlBO1ZmwRDXH0eWUOSKWx+mf+EZdNaepboNvLYHAUvfG9G+/eblT0yh0T6y3etlPhLpHEO5CPypra6Beq4DNJEwCHkg9jEjoIikFVmw6ds5i758+pTX25hnyOZcT2xrQrTkjHAkPs6BmVwcQwpMPoLWZlSD9XvRUbaXTVmEziJKNpszHpcq08+qe39hrZjR49uj4c6H4lHAyxcefU1u7Ax/mcZ3/f0zbjvDONvo7FsK8qsmCTKEPsmdJ2CaH9CUUT1MQM+JuqPtTt5WYnTMNYV+WDXa5Rk/rCku3vuXIuvrPiuW8aA95Dqw2R483p4CEpf3cZ2cYqwDoBBi86IwV8kB9AoXRhxIzzx1wVZRArW6mSUshUWvLf1ojhTyGTc3n3PjXvHDb2rp2mpP/yix+PcHSFjrKk4wrTs0jJYi2jMwklPRQDSimd/qJRfzzhhhuCuVznJwtvrA62bDxTdliTihmNIjH0D1G1yoqHIoaGkaBBtpqRhRD/0yccZxuIK0wMZ1eF7fz95W/HBh5c4C+/+LzypyDgbf+50iMFjiGqAFBPVlxrv3fLA6/kcn2FY3Y+ArsMCLc+jXXQC402fVTljERL5ER871A08A2rUWtE/anObDSWWzWz1dfjhWARmqU1azQUCcCzxtnkTyabMAVWKS7b+7FEaq1Tq+gsn/qb9l25IBcm1J45At8aXnNIJJECJT+5pLiq7u63335bX+928YvCBute75xn19QJsWCPoikxBE4pyJNrgiuhimXeoBAYKczNOASeoMaY2dnRkXKef9Atv/qfLIwrZp5fWhqKlBnl0F5qIrVvKmkYhm1Ug6aa6lLpFISgIrBajkKvOh2EbFwXdGM3pmTTal8k+p67pOKDtR2xjoO/Wdo2EDX9XXzLCl+3B4zA/wQItx031kccnz1hqvcMUz4MtyglkXa5tNQOoqkx3e3rSdV8syS5cnMwfXjjidHBaiDeA+5l4RL6MQKn7b9/9bpgcF9Z095+//332/vxUf1+65vzry7xJoMHo4kd3CC/osYR9wJBSD4x0l0arwh8rhSEBWYtLft8STa5pBKWhv8cPWXm+n6fQD8/gO04kv3/1I51SePmWLmqtLXJsdKkYupU0BaYTDXWBNPFZltCch/L53nQyVb9vJzC278GI7BbAOHXYJwLl1gYgcIIFEagMAK76QgUgHA3vTGF0yqMQGEECiNQGIFdMwIFINw141z4lsIIFEagMAKFEdhNR6AAhLvpjSmcVmEECiNQGIHCCOyaESgA4a4Z58K3FEagMAK76QiseOABY7rpg4PkWFuRxW6GOyQa/Ol7arPRfSKdisoG1WKRIfkeitR++42jx4/nIYXXHjQCBSDcg25m4VIGbgReX3ipw5UIWy3xyJd6umxdsOPgC/rrabOabs587YEzn+gcuDPY8kk8l2Kvai+xsWU8KP4HfxD8P1/8L/2VMuFc8UNfcVH6gJ8u6cj1XNijuWbWWaWGGHwhTNCAMcIjF58jPm8HLweOKR9xZudgsT6Xo8WqbsN7dOuGIwfOJ/Pyb3M/HMYSAJRNGjrtF3lLzL1187hvjFSSz8c9G4anzWjFxRhA80aGspBkNxtSZoMpFfajJdJRsaLJXjFm/yl3r+fp/BGtLnt9FHc5erz6+WVuCu9L9v5suTu53o2+HRfs4xekMuPHe2zsTMRrf/60p3Xq2JLNYZ9aZzUL2YNs4yX2AeIfYrZlvofvt0XRA2NOyMOO/Gn3YFpAvT95gttuiEM8EzPeBos9um5nXoaYPif4O76suGchXNNmh5bqy9zPfl4BCPs27wpHfw1GoPX2223dbf+4v1gKXCzTKJdi0ZAFpPHs5756lBKjdgo8A+PQnw2kkt62b44sGwxLqo3TzrzfFo9dmezpghIT3DbhDG+AtJLw9kvQDxDN6RTfgktFAhqkcXtZm0crP270jEU5KRt9dOOYg9zJnte0mM+isOkd1xmj0S4E5VUo9VABhjKIbPdmizwVTiDLnuyylZ5Xu+ClQZHZ+3DSDy6viHQucgg/EQrpwbMG4gFZuzYVSkppeDXGIRDfabR1OsuPGFp20015KQGtnDr2hGEp/wuGYLs5LMeEopICSUGNvpfwiLTRGzIBf1Wj++GNo2sn4B7DrVqSXpt8/lWjU97bbcEuoaxBnVIh/E6lqYyzfFYNZvuPTUZuJ89nSpgRZNwydvQRW3//1rqv4ueK/E5SVq+Bwfhj6XiiIZ2IAFAwptC61SCsT/nINOaUED/n9QhFHf2c2drvs5RcW3/7y7/I8/R3+ra3bzx3dF00vlyL+ypUqA8lVCgWYXuyRW1M16l2QF4xQaMAnFG3rMhNZtfHLUPqjzqpDxtBcT2DcRGFzyyMwFd5BCjqXLV204P2aPd5Ch5C9Ovh8YcVEgBHyUjZUSWFakgUl6Yma9JkCNu/U1sEbzjarAzoa9XkU3Au4UutWKAcJoBd3A9lFl14JQ3gy4rXC5k/AFXCXt3Taqk7cnSOEn8f3Tz+4Mp45z+0cA80nqD9CWnDBK4TdtfQAoXWLCX3oG5DPVGCLhd83SG9+G++4qEXN95434CbFq+cePQVtdGOByAjIAA4BoEaSi3qVm2I2hKQAqRXBTwSQ45i32e2itojblqcFxB23nbpJamNK5coUQ/SodDUpdoNNhiUbTPDDioUiEol1tp4t7n8mrIFDz+QvblvTL/46pHx9nvN4S6xjhJchFdpBhS/IDi+0xmRLyDq2ss7e+0MCNOK+l+rXHPYuvC66WVO+9RkJCApsahkM5skuIxA2xZekwBC6psKIBSOIrxQ3RzBZ7b1NFWN3vegifdtGtAJjw/bcP05i0rCgcs1KCsJfWHMP/pTciPE88n4P0tJgDfPxYyNi0+xSOHa+jH1kx7u8+asAIQDfQcLn/eVHwFoaVpbVq/9jSPSeYGSCulGOPBnhCMugJA7ZEhrKbrBtBGOHAEIsNtKi/3aATWlgwGEG2ae+huTN3CZDXKDlPgzwIha5fczU4o2e902COdInUyId8UclZ0tjr2OGTXtjpzcT/4z84cHNQR7XrWEO2yMvbiAUwKNjh5GCK3T5YRu8sJZQkhp0zEeXoQmu9RhK7t0r7nPLBnom7520rGX14TbFqkQJ+X1IRsngFAXmYfmKjwMqQIaxf9CrhKPcb+968rH3hfo63kwLbzy6qNnV5qj02wQRKUsHBTVkAOATyKdTZIwpqatm6mmJeCs/EHFjAfey37HiikXTRiabv+lKdBuYBQtRLEFpum2bMIlYhtfwS//Wz++9+O251OoC5rrr+39HoBFNM/aOG11Pvx5TFXfdh1ed7Dv35IrbOj8uykV+6YhEpJMuNcWRFoQ9BLerowEk9RwzWg9Z4EwDMFJr1Yyc8Rtv5/V13Hf2fErbxqzT3Us9IoW9pZxY0bldpo508Eya4gstFcJgHBAoSNHUrZKfrPzT5W3/v6UfPwZC0A4kHew8Fl7xAi03j7JpvZ8sMjobbnACO89LiSpNAyfCYRYgAmAAgi5Q0VEhqQhveICRYc2lgwGEK6aftxidzw53gid3WQgLDmRssMyBrNkfDO2xgRALOE4H+7aFSnhqu1q0fY6ZuSMn3++aO/sxrwx97JDhgXaX7UEWy2MNEUKFMBP01sV4GvAQpQSovj4Q3FpsegiaqIprr3ys3aH+4TR23GI6M9kWDfxlCtrgm33K5mtf4yO9ojCKSMvln3cC+FwiFRmsrTGt9JSlVdEyE2Pb+2aB+Nh73kKXFcYcZiMGhZXVQiaKyibpVVN8sUdrw457YYTtq6JvQVXmmFp76/Moe7PPTGz3ph9AsJ+GPrqXpC5A2kWsAmEcZP2ruvg6u/Q4X7d5FOuNMcC95mSYVmDcLqM9LAJGwFo+2G+EwgB7HrcK9Kx9JNM4P4rJXWf9pjKTqqfcv/a/tzvrd/bMunkW4sT4ZsM8YAUxf0VXs+ZeUDRcwIgiwF0H4IztxRF9kIpGRLqMBed0nDLw8vzOY8CEOYzaoX37NEjwNRow/rmRUrPxguNVHQWAGDBX3jwaSHGJCFEzfhsxhGxaBYrLKFCQdchw4sHAwjXTDxySVEqcYkVz30SxtAWmBNHI3A+gTNummESVm+mjhg5CbNrV013a9Ho74+cmDsQDg+2vaL5WqxpOs8TUAGEChZLFZ6PAggRkWWBUBfN5oII0DWYpYDZfeuQ216cls9OfEcT6TMAYV247X4VKVC+dHcaOrOzbkWg1n9Ok2+lotbvN5bUlOWRGt308zHFxa3NL4eD4QM1RPcKLL4Y8aYQ0SXoIQX/Sy9FvV1DJ9fPf3Lh1ue7cvYPf1IVar3XGOgR0fnWdUHha6iHhzt/CY/G/F966jOTMsR/itThVn/LcNGAMr34OT1Bsr9nXB8wO98tPbhcAOGKa0+oqnQYf2sIeE6itLiMNKm2NRBmHG2ykvzcetFpJ2mwSAFXzYTaOU/+Ov+r2PLO96ecP2ofNfZcrHPD6GjcJ6Uc8BfFr1WEo4ZkFoypuQtHECIiNitpm1vq1sqeNY2uvjRX79Ftz7UAhANx9wqfsUeNAIGw4qO1i9xp34X07+CLwEAgNDE/hAU5iUhR1CxgURWJRCSnwxhUDx46KEAYnHnSYkNH93gjUpYJAG8MkVECESl9GFNRLsCMjOgDCJ86lv2LqrtbHfUAwi1pvJ3dIEaEe/lbX7H6NltTuC4Zi3gireGzkBqFCwxgAd/Ha6bPmG5zlOaX0mOQIGx392wylp++75xH/2+gJsJHk0+4cggiQvqWZj37mCajez0XxiRqVzwX2iMFLU5/+pDR1fmkRptuPKu2ONH8HkpNxVZYqskxRMT041QNUgxmLBQ2D8Heq8dde8A3Zjz57tbX96/J5/5kdMoDw+6OLxFkhK9hBhx3PiY7r/Ht/L06iGbThLn8TXspbnQ4T/wm1zulh5YcRCDk56y68axzbEnfw4aQx1JsQTQYDmZSq3pd7gtkmQxpxgDfzE6T618tZfuddODkhd7+3v+VE46/YpSWfiAV60DsH0W6kxeoSlYUiRVYk7FWyQnP3AfPKgGj8KSrKthV3HjusMmL/pDv9xeAMN+RK7xvjx2Bfz19naXhzVW/ccV6LkynSc9GahS+jEzPqPhDFikNaEUERr4aXVLkeEA5YvigpEY9PztssR2pUS76SFpJEQCx2alJPV6vZFU0PQokOJMqw527u6q73dGQMxC+f/Olh9bF2/7GiFDKAiFAnx6XKlJjBEKCPv8wtaaTJnT2qAwyTRyGwZ2q4wlb2TGXV+Zoe9Tb5CEQ1oXa7ufmI2M+JMadFSGx+GPchZEvQDtoKfXH6+ury6/ue41w5eTjv10X9KwwwOzUyBQgEFHFF8KKSQqDOCKhDhYrqWjyF1XuW3f9g91bn/c7cy65pj6w+R5bgKlR1gUxLhnfwlyAkBCopzYzNV7BAs0QgjIp4GwaesvPdaJK1uBYN+3V37O9vwl4O/q5z+T+b9mhVxyYbYFZcesVrnJ/yyP2oOdUYwz2bri3W8g2TInzhBkJ8qWfN2I0ya/aJV/FXmc2Tn3w+d7u685+z5KEofWjPxdHu4+IhMGQthmlMO4JZ6AZmQHWi3XgR7qWGRBE8CrS2F2q6/mqo4ad1x8f2gIQ9ufOFd67R45AGkDY8uYnv7FHPRfSQR0w83mNhHWJrFscd8jZxJbZqAXUw6oGBQiDk7672BiNj0/RqBeMvgjIMmjx1hffjFkrQVl3S8di7qjo6SyuPTrXiPA9RISVgc2vWMOtVniEisWcrRhkxNJQV19kM1eKdCEX1rggYWBjgDEIInKS3cW+NkPRpaNnP/vsQEyKz1CzqvS33s9ENF+64TTHPkOXQJSgswcRIdsr/KnaIXkB4ZobTr60NOh50ApzXy7qEUS4KWwqFNTJCGxxRCEBa9nC8jv/PGVbu7cVc8/7aX2g/Re2YECwRcXGIHM/si0UGfbMVoCyZXSQ7cXijigebSop/AmDmGTQzGhfCEtmROAyxjUFs+I4Nl8K2kRiyDzYEPUzZR2FEbWCjEAS90s3BP5iSnTrf2dTo2J+4Dr5b943n7nkvbKDfvTtrXtB18w8+9jqZOCpWFtrsUZSKiJjHf+wAcFEAG0lQ5zRN2A4K5wfUqSW2v+GKsqPq560KO9e2o+vPe3kBi30QirYggGJgAgDQ3AkZBSjDXVAZKmRqtUQ0SbxHCS0BMYLfYTW6u5OR+Xx1TMeers/864AhP0ZvcJ798gRoF+m+uGbv3UBCI3ooyPcIWAQCzEXL7EwYCEmfZ+LAwv4JrMlaDykYlBSo13XHbpUDYTHGbm6GZEeBQCaTHB05+KLhYELofBRF31eiJkclT3tJdV9AsJy/4ZXLdFOi4KFVbizZ4CQLczZaEP3Z9cjsgQWY35fHDU1ExbkEA4KW8v/sqm4/uLDb/h1v22s1k0++8pS7+b7VYCSSIGJGiGuUtTdAAwAB7Y50Ok+5qoIyI7y6r7WCOn9uOYfa+8pCXqusCH6I7SH0UDC2qARKTcu9BZ7qbQ27j5o2J3P/Wfbyf7u/AuvrfC23GUPoZ0lUw/M1gmzx4pU9XZeehuIbvINZyr2SYKlA9jHYp/ARseGjEMyjg2PapUirFFi42OBObkJujeJRFKKyWjzQGrYgOP0eHLHryxAE5yzEStB3mstfq/6xMkHbk0AIou2adKxD1RI0ctSvC5EXRx/QUzJACHvfdJgFfNCQ4o+Brdu1Vgs+dwNF1bOefjxfBYFWnc1vb7o33bF8x00b0iJKOY2pprDXCzFogkphrFhX2OxSZMCQa+UMMUlzV2ODVnZ3c75v7u+v560BSDM564V3rNHj8DuBoTBKccvNcei48hqDKDBnwub0WyTQqEQ+qd0Fmu/gTCw7lVLpFsHQixAKtiwTIMS+PX2DLYxCE6qWBhJlGBEpqhI1WKBMtrsUsholzYmLZcfePsLv+3vBOkLECYcFf60q7zPZJk3Hr3GWfHpR/9wBbr2Ncd4NQBV0vFxnWwb4TVG4QIvlwz9Xun0hzdve00rFl5+VUO4+05bpBsNd4IvShqjIQ02EbOkYsOUjRDJMNrqpW8uMMJAXSPcyKOoTcYSCSkCQDaDBewyozUkhEZy1mmx6UmwHkuwjPolgxEMZkd5NJpIq6qoC+tMWuwSeAhPQs8NYG8kIlNR0NW/D6bIjB3BdZKNfkvpP8u/ed6R26oDvXfDuQcMN7T/wRD0VCYYjeLtKucFPpncLG5AJLTpsEZsQIoyHolKdkuR1Cppy5sOGn3GIRfd6+vr/V85aeypdfHO38uyH/MO8wkkLNaGEzHWhFEdBhBbrTYpHEZfrxGpUgjLtIcTG0Ol3zxpxIyHPurr9217fAEI+zuChffvcSMggPCDfz/oivku2B0iwvZJRy9NdXeOcyItqoC9GUe0omChkNHInwKZ5UtA6KrsbndX51wjFKlR/7pXzYwIURM0iIgQrEyRS9NpCQmsqlwIDUgVM5JhdYghGpZBRANQ1gmhtcNil9Kusk/DpcWnDvvZ0lX9mRi5ACFT0yIizBcIF15YW+9bu8Ea8hpUkDHIgo0jAOJ4EuaTIIJIziEPu22HXiVvp/a54oEpo8ztHYdb0iHsD2Kfr6VIHqOy+eUXgmemssXoIcICtwkMYDlqMsYjp4R9PSc5bFbRspBAalREpARLpEZTqMfGSXLBOWn44KRm2dgW0+6VrEUesHnlpEFOK4A2fCKLtjJqyeJcAJEif2HAb/i7ZEJ8iDgHIKQc1dzt37rlty9se6ZpGKW3/PX2GyyB9vlUU1LQV6kKtRz2crJeDgCk0AFhn6lT7AHM/H1RZfgzrfjSvWc88mRf7j3JacM2eB4zezadkQBrWTEZpJA3iqyHhgCZ4gZIk4IpzcsKAxiZEo4DmE1Vw2Y7h4+ZPRAyfwUg7MsdKxz7tRiBvCJCozlkPKzKPRjtE10zf7DUitSoDBafASFaEgtPkiQW1JVE8/u2EWEfgZBkmYrYulfMUUSEBEKQEhQRETKMINiwfUEHCCNqRQRCEmm4eLB/EagMkARxxWqVupFOC7jKfj5szp8n9mey5AqEZBFGAYT51Ajfn3ja96pTrX93xkPAeKQaEe9GcY1xjLGCa0qY7ZLXVHHl8NlPfK4m059r2t5700+PUUL/DUxNR4Kz4xg7I66HaUgyhBXKnZElDPxSsQniBiiO/4XN1n9Zyr55UvHkRf1mae7oetZMv2BEkdzxguLzjzbFMTI4D5YG2E+qp0qRmibeqmxjwb8TISkERnWsrPaFTY6acQf24dxW3HrpEcM6m5/X/F0luA1SEJJpRdZS7C10IYdEPILeTsw0ZEQYibKv0+gq3dCesp5Uv2DZxwNxTwpAOBCjWPiMPWoEWDtqemX1g32pERpNWtB0aOWg1Ag/Q0RYmZLGJb1d2BkjTSXqSAAsQZjpf0RIICxLIjUa6tYIhFz0VNAguAMXTetY/KIC7NBWje8jc9YIEomILhCEkLwjzoURIxYsj8ne3F22/4X73PDL1/KdGGtuOmNCua/1vp3VCHWyEoDQWeFP5kGWWTnx5Cuq4m0POFiLS9kA+EiFinowFn70Dyatzm6fc8ipDZN/8698r6O39wnB82sOm1ZuMc1OBXzo3TMKEEyRscrUI1o3QhEQd5CCjlPvxmoEOFv/2Va+7yn7X3e3p7fPz/f3OC9584Kx19m72283h6MGbo5IlUmBxIMAFJslqg8hEIasX5KRbYbFqTjLghutrhOHTV/2eq7f/fHNpyys6Oi50YVoMwZJuwQ2AkoK/YNQ+RHROaLgWMqP/lmIV4ShelNSK7XGLTOrD7xg7kBEgzzPAhDmercKx31tRmB3A8LmWecsVTtax9lB3LFgIQwFfUgXSZLFgigGi9BARISlqXWvaiGPZkQaTEmwKURPRbFlIoEQMIq6lQBCUOpNrCGivw9ZOByDeiEYNSnBtsTClUDDu6NYalOKH+v6RuNV+dSLONF2BRBuuuH0e4rCm6+xAsiBeog+IE9H1SACOiNgzfqqvbHkdPnqZV+SbiNQ9JegkX2gWmafPiPe2TTLik1GEYAvAp1POcGamB31VwABNj4c/hDkz1JUg3WV/jtVNOSEvpKD+voAr7jj/NIh7d7n7RHf4SjSCRUXWUFanhkIRH/ciCBoA6HIBnYnshVInweQ1o06yx9TDx59ZS59nSumXlRVG2v+d0VMqo/7cd0Q+YtzjqFdKQ4gVNEeFMH2JGlBNJwISxqFFFxDVrY5644aPgCkrOyYFICwr7OjcPwePwICCP/22eK+1AiNqhYwHV45KO0TK6ectrQqGR2n+rqRliStH5GYSXcHUCivtp3UaJul9uhR0+7PSWv0/fmXHloc3PCqFRHhF4GQajJYmBARZmtnTI2ypcKYoAg5maOoDQE0olgkRQ2RESQWbslaFm2zlpw3/OYn8uotyxUIWacMu/oeERLI2qec8hdrqP1YE8BbJrCTCsTBZZwJYE8r1nnaEWWzu9+LVXSWuBtk2VEGRku5IRavlVOh6ri1+NFRN/zy1f4+EGtuOG6GWwrPMoR9SD3jLHAOBL9wiG0yGGecF3iaIkplxOq3uN8wfmv0CfmqqPTlfDfPGHOu3d/1pAERqiHFyJ9AiE/gJgn3nzuGKHZlFHdIQpaNLReyozi+Vi06fsTcZ3rNCHw86dhrqyK+u6zoE8TlScGYRzJqYMMy/c7NGOZZEhuwkBmGH4iKVQBht7nssoYFf36wL9fR27EFGHKdkwAAIABJREFUIOxthAq//9qNAIGwZflni+3h3MkygwqE089ZWhryjrOEfJIJqSk2UZO5R9jh/w8EEJYEmpabAx1mixC0BriJGiBbQwBwYFIGUZ8yQuM0TSIHyBsa7afA6xftAoJNSG8KXcILjB7RG+exli3faG8Yc/DUX3X1dRKtmXz6VeXetl/1lhrNFwjX3XZVpb1j/T/SkbYRFpy7iaoluG6yY7mow5aIEc87aJHzJUyW0pjVUo0Mpc2SNplTtCmC60WXs/rMIVMX5QX0W49Hx3XHzTAnPLNMCWxyREsOo1KdnUnmqpBtQORNV5A4WbruqreaLDXH96UO19fxzx7PJvshvrbfGjxt51ih+2kkWQusn6yyUBpAKJr7kVY2YJNkpg2VYpTiVvcTtmFDxsk/XsT+ju2+/jX3hzW1nua3iqLeaoS6OisWEnoy1INYJ2WLjBFFwwS+L26GpiiQUnNV/1+be8i5Ddctasn3mrb3vgIQDuRoFj5rjxiBvIBwEGuE7886f2mVtxtACJsg1GIIhIxctmhKbtM+AbJMXyPCkkDzckugzWzOAmFGzFnojALdkmDvRUDx18BURaIuEArJdqOR8meADv6eDf0ZtRH+G5UjaFm6pA7X0KtG3bzk/r5OjFyBMN8a4SdTxh4+RAm/GI10utm1rSIlbAKAh5DrS4Ic4oRajoq6aDgakFKg69P3UAaDE1ggHCrcxUWtEBs/pmrqY/0ma3Rd+92bzfHwbLZsUCBBiLqLNgX+AcDgXpjYSI6UYRIbjJi74j+b3COPH8wa4db365OZ5x1YGff8RerZ7DaxGR/RajAclaxMiaLHT/gVYqxYR7Qgpctm/ZTJ3NHtrBhTNmfZ33d07z+cePZ1lfGOn1uToUxfKrWCdLcTtoRQXzQdSEqmkjIpDD3XRJFbCrqqx1ZNf2pZX+dTb8cXgLC3ESr8/ms3ArsbEL4766Kl1d7OcfZgjwBCxl4xLDwMvvQHuP9AWOZvWa4F2s2aYIQK3r6ITFJo4CaFPQbwNYLFmAZjVbXY5saSph8Fg+Eqs2g1ILWe/6+DMw1UZTR6RxXUeWyVqzdplSceePOiNX2ZSIMNhGumnXlhrRR+2OOBHo7dKoW6uiWn0ylF2CoAdkY0ADsipkmRBzYg+vOAyWiyOqSgHwu0xSHZq6v+aHXZxyDiESa9+b6You284Yjp5mh0tpIBQt7XpML4WvAxRWRERRU27bPBPVZUuWKDo/74b025vyff7+3L+9DeYCxevequGjV+dTwIyUHOD2wamJo3YaxIHmX0ylYLLYrolW0tIHX1WNxLyk684Yrtudh/NPOqytpg0+9Nga7vmJByFf2JmNuiC5LziV9B9ixmF2uFZIoG3BUvryuuvujAfqjX7Oi6C0DYlxlROPZrMQK7GxC+NeuHS+u97VuAEKmjmGBpUp0kK/K2lbJMHyPCD269/LAyz+ZXGREixhMpLi5slDNTsSATckNomrbYbOgXhD+jw3lmXHYMBbvvTlj3IFphS0XWt46UdzrEUZYO4s6aHVqQFXeB5j6xL+SSXIGQ7RPsI+wra/TTa4+/pUoJzUyBmq8AuKnuEgd71AgCEkMxI1VbGOMibRph3ybSwiFEiqrRhRpYibQ2FLtu/zv+dHd/HwgCYffEw6Yb43EAIWXaWHelDBrTj2zUw3kACM242bQTFBGhs+LtDa4hx+0qIOQ1rpl79oHuUMdziS5vnZ3i5IiSY6LXkWbN+txTcI5mtFPSFSKBNGZAs7V7LFWnDJvz2JdUedZMPvPC6kj3w2o4ZuD4U0ReaNluhUjU1jUiAo1C1kkrGRJo0lzj6m5+5Ln+jvn23l8AwsEY1cJnfqVHQADhK6uW2KPe83NtqB/M9om3Zo0HELaNcwbQPgHWHiXAojR+3REQOqq72mzV38+VLEMgrOjZ/KqWAcJsDVKXlGPdigaoZuF8AT9wyWcwnlE9vHH5x2ua/1BliBxhRm1LhkWOrm4jvCEyzfdY2KhIUlzX8Zmh/Mz95zz0z1wnRl+AMOqoQh9hbc5aoyseeMBY1/LXxcaudRdZsWAH/T7J4rCJvkw//ltDyteM01YFKLFOmhRpYZWMTlynXD7E0+aoOCpXLdedXTOB0HfdIdOVeHK2SkzBd9JFhC4gQsGHGxJqvqJ/jto1TEFG3OVvt1hdAMLHd0lEmD3/NTeftLDMH7jRDAD0RUOSZrMAnMMZEXBsoXCeJqRG6W4RB6MminFMWpwzNtTX3XrgVrXC1ttvt8kdrzzuDHWdZhBuvxlbM461EMHhZkyXoEMeGiBpg55s3fMlC585eyCtvra+LwUgzPXJLBz3tRmB3R8IYVCDRZtRG33Z9NfWWqN9B8LKnqZXrf526HfQhBU+FlhwCWpm9owxFQaR5wgWOdnqkmK2krNLF/zuuVXzL7i4pKdpsRYNqCmQTTKCJkjmkXKi13mgCwKdSLvUbC5eoo469KrG8TNheNj7K1cgpO4lI8K+AOE/b59ZPiz43xc1z6aD0iD8WCzo1SMtCKlJyn0WWazRRLfXTB/gJIgfrM2Z0bYgaxbJH0xInWbXW42H/PiwgehhIxAGrjtoOoL82ayxib4NproNtP8CIAoVF/oJUmAbRBXUaGNFpW+3/g+A8N0FlzQ0tG78pyMZqk5CTShIhwpszIRWDvr+WMukSD03UOw7jSO1LKumzd2OihOHz/zdh9m7vmrSmEOdkQ1/cxvi1iSUGvQoUO+HZe1b9OljCJgSprpM0OgM9WjlpzTMzs90t/fZVugjzGWMCsd8zUaAQNj86uqljojnvN0jIrwMEWHzOGhigtDBiBCalJRXw33hgtFvIJx7+WF13qZXTagRkujAiJM1SPbTyUgd2lSYEseQ+oLSigeLdbdsHTPi3pee+RdMbYe3dDxmj/pOTGLR4qkoSOWxWghkpHInFjeCNgQAnMWhDlPFWSNuefrlXKbTqpvOvLrS1/LL3lij+QDhewt/NrI+tumNVNemIhkLsWp2BvwGw7uyQX7TbIq/K/t9xxfJ6rhYMAJDYpouY2sQ80uapsHxAHSO2hEzKm5+dE4u19HbMQRCz0QCoWG2MH0GCnATocAHUzfdIjDSdxHKMgAaskbjRYwIbbs8IuS1eCcdd5HN1/2In+BsYV0Q2qesJ6ecwlJKMcCJAzuIOGrGQr0Vp++xVc+qn/vSTL5/OeQLv/Hx6w+4JP8P4wEvjoeMHYUDdPiXosJuBCl5ERHiM+CL6bMW31910EXXYuMBqtLgvAoR4eCMa+FTv8IjkCsQCh3OrPsE+giNg9RH+G+kRod6W3QgFA3ucQChDjwDAYTsIxzS07KcQCic1QUZR7+B6JyQ0hCkZoN9Aum5MNJdQVfZmPq5y57h7zdOPfkEV9DzHFKgVr2hgwLNYGDS7gefw9pPlDkukCo8xvIVa34w9dCjjz46oxK940mSjQgVEihEtKD77TFKEBGIaDFg1IoIqY82TP+ae91BNUrPC0rA809Q/R9L2Mv+3dBg9spj7wpT6cU76fBnbfHUGQm4KiSMELxGetduVVEfDUqKtVjyOmsOrpv58FsDMcX1GuFB0w0JAiGvTa/NEgjp9UgLXUb7SDqKnnZGhAln+YpNpY3H7SrW6NbX2bHwUodl85oXFIN8dCwBEFQCUCJCujhZBLjG/VC8wDXU/OjOwrQuMhc+ybG+rXGfgw746b0d66894YBS2fe2DEk2XidroAQhXjsjSbq8MArmPU6iqV7R3B2dRTXHN077zX8HYrx39BkFIBzM0S189ldyBLJA6Ix6z1NRD9mRDdMWIKSDjmXwgHDu+UsbPa3jXH4vUpVsTACBAwhIcoGRMmjCFJY/5+MMcHbVdrVYKnOuERII67wAwmAntJOxApEJSpPaDHmDN1EYwCKyi+PnPY7qsUPn/U5Q2LmQt0w84wFzvOdys6ggouUbLgoWyUbrAymshCUDnBSSoNunrZVSs9Lws2/c9tA9vU2MNdePmVAeablPhgiz6FkgHGBxVYRRL2tKEPkWRsFwxHNV+JLVjTW5GvMS7F67e5ZT2u/IwLag/B4c62uktt9ZI9ED0zG9XUFGvjQGVRMZ/niysfgjT8nQYxtvvK+1t2vI5feiRgiyTDoBsgwd7TNGvXT5EJ6CpCoxSqT5MrcWrBE6y1a0lO71PwFCXtO66WPPKAq3P26K9VgSkEQzIJI1xxARIpWcUhkRsnWQEgCI6DAvY9gEhTXLvLr93LM9r2/8uSkWv1pcHFsusPFKolmfGy62q5CJSlZuALXDpMUlBRXHXfXfq5rSH9PdXO5DAQhzGaXCMV+rERBA+MpnDzlj/nN3DoR6lMKXOqhAOHZpI8gyAgiRKqLSRgTMioEGQmMoA4RYflHx0YGQCxpddwiESFuh1VnqLKobO2K2DoR8rZpy4d5laf8f1GBrQzqtW0OFg2nJDNucGCKbSDQoudCDZ7SVSV1y6WcbXEWnHzh10Sc7m1RNN42ZUBRsuQ98VcFApcgzF1wusISHlCGii0DTGtZR7k3UDq3NFQh39r3v33zKoQ3JwF8lj8cG2VRhhOyPBcEmRSSM6CVqKpufHjV2TuP48TnVOnt7cLJAKMejsw2IAOnqQYwQzeUCFLkNY3uKzsOlgW/EQSAc+T8DwuW/uso+auPah8zB1rMMYBWTLWqK2wS7NaUGEdHRs1KvYcObRKQVFGPqUxRd5xhD8qxkQhoWF9cjNlIAQMi0QaYvDINjKxxMun2YQ6U1UpeirQ07h5yZK+mrt7He2e8LQNif0Su8d48cgd0PCM9fOtTTPM4JLUZGhIwMogBCpqBYkxuoiDBfIBRgeO0x11cnQ3fG40iXoY4loyGd1kwaoimNBAg/yB8peMxZy6UW1T6z8e5nZu1s8qy7/uQJFfHO+xJQGiGD0JzQFVaiWDAFmxVRIaOnpCDLlHkTdQ0DAoSrZ551iat9wxIXAIhRcQSyYQkwIA2wBgqjRhqy1Rxbf8tjrwzUxM8HCGPOkrc32uuP2RXKMju6ztUzzjq6JOp/VQ4jXY/UsYx7K4A7w3YlgLOvNM6dIpi5JCHBWaPVEE1Vkt/FGF+0vqD+akV/qgGbpTQ2XgYcmFZtkhcHJCsa51Td8viMgRrrAhDuipEsfMceMwK7GxC+Me/CJY3dzZe4QC5QRQqU+p86O486lNsDwmZT2dGjZyz6IJebkk2N9gcI19x2yYiinuZHTGHfwdRDJamD7QipANzLESlYAYzpKFRD0BjdY7ZuWl9SdeIBU5fsUJWFQFgS3HQfbREJeGZoTvIVMWauG9qgutYpFlV7hTcxpHZAgHDj9DOXlvjbxikAcZNg5gLUsTj7QlCYKan4xOOqOHX4lEdX5zKuuRzzVQVCNtmXrGv7LXoLf2iGMozQEkJ0J/xAaODM3kIBdhkWqG7tLATdRQM+NhdC15VapcGQVIJWjDBsqExWixTBTe+KKGvl6r2PH9JHIYZcxnx7xxQiwnxHrvC+PXYEdkcgHAYgdAiWHdl4OhBmdEeEbc0XaoTu6s5mteL7uxIIORn+M+PUHzVG/b+2RHwqvfOS0Ou0G+yiHy+GOpAJrrJhmKxGFasU1CqX1t3x/KU7arJvm3HGBHvH6vtk2j+RjZixuo0rqDVy1aJxndDhRLrWjtTokKp+A+G/nr7OMuyd1Z9YvK1DHGCIxv0BRCxIyZqMEBPQpDbZ9GT4G4eNz7UFJJcH5KsKhLy2TxZeWl3W0vSmLd5TGxd1Qd4XJtPJcmXamqUDXfWIrSECbNiKg9wvN0p6jRAkLJrtglyl0vQX4WIMCj5h99ArKkaeunggWlRyuQ8FIMxllArHfK1GIC8gNJn9xkOrSwfDmJcR4bCu1ksckFgzKGhSZnIUbQlkJ9A5cHcBwuVPo3b0wYZlWsfmE01GMEfpmxhArRCprxQspKJovjY6QKnBophKOhI9avmpjXct+/P2Jte6m46fUBtBahTEGy6kNGSl9BaJM7quqYUke9FjB9bngADhxzCjLQm3fWaFrqWM8zWDHKPSnNcH9RwzWKN298/Kb/tjr0SfvjwsAgiv/97NciI4K9caYcxR+o5SMeLokp/e6+vLdw3Gsc03njHFFe2cn5IovcbGS6Ngj1KwHV5SAghFWwV+zuyF4CSjvSIqRANwOFKglGkzZkym6abSLhn/2apVnnnAgmUdg3HO2/vMAhDuqpEufM9XZgR2NyB8a+6FS4Z2t15CrVHYlovePLYU/M+AsLj23BEzn396ezd0w5yxx9b0tC+LRrxF3P0rKijwSIElwl7JaFakIBbABKIGu+qCBFfZm5+Wl5502PUPdm/7WWumnDyhzLvpPupW8sUUG+XkUCIUTMo4IgnS7Em/TzE1WlfR74hw5U2nXuPyt91TZkGvIGpWFElJoVHcbLJKmsXU5lW1U4rm/X7FQE7krzoQrpl/+V5FPeufN8Z7RlM0PI2UNVmuacH4AaOUXGb8W0lbBSAKEXfMXQGEoooIfVJsOALQdmW7hcUKWLW5L6+d9/wjAznOvX1WAQh7G6HC7792I7C7AeHbMwGE3uZLLCH0aCHK4hJCer0uZdb/iPC9uZcdMsS/+bWca4Q7AcL002NMXW/6f25Phq5OxTOuAtj227DwISGWcboHeIUh4u2skDqMFVfWL3jigS8BIVKjZT1N91E5h7Ultg7ypbcXkCRDlwbGF7h+sEZTtf1LjfK8W9/y/tUU6fqeESLQyMUKL8BUwgxWo0UyGg1v+xTlYm9RSbIzZnKWag4tmIZGudke3ff6Of+X70PyVQdCXvemaWfd6Ai1LtSQ/k6BWpwUDZ+cm+SM0i0FcJdEjRibFiPZx0ijxjC+7Fdl/yAdNwyYx6AZSz7Fstxb1njeQJru5nJvCkCYyygVjvlajYAAwtfWPOQI9Zy7M2UZDgqfeVLAjWZt0FKjH8N9orRt3biiNBZoSFtFIA4t+szErnsggPBCAGH3a2qwQ/QRkuxgpCchdR9JeqD5L5iBKYRjCXxfT2n9uUNnPLvdiJBjsmrqRQdUxHueSQc6G2VNV0pJgQhBC6coakFms6ariIA4IZlc/20r2e+UkdPv2rz1JPtgyhkTqkOb76O/nTEjI0diTEJEiLq0nHBIZ43JWeFNVVf3KyLcOPO8anv3piajHIKLFOqZFqPkA9NVMxVLkTBqnZrZF5GMq2KWYqeiaSWhcMAmmezmHqX41/vM/OWEfB+Q3oCQItz0IWS/HdsnkvibrFGlfK/v7w6pUV736tuvLC9qXv1acTo2OhgCOQpp5DDaaOhAwoo2vS3TaZvYxBhFiwgl/PTeUOqoCiNiPEgBSPF1WWsvGjbv8cfyHc9831cAwnxHrvC+PXYE9Ib6VQ87It6xuwMQrpwJG6aejePMER/skOCMoEH9H1ELwUkGeaa/NcL35l54SG2wc7nJ36UNBBCmn35aaXr7qRtccc+CUJBC4ewV4x9WiUCZBzkiBjcLp7NIRAIbJeekhrtevnPrCfXRzWdfWenfdL8FhBtdT5VRYFaCC31nzFviZ1EAYcxVCSCs6RcQfjLp1NMb097nY5EeaHqiWR81Qg0apMk4JcAUyQS3BcrIRdHLGMC5l5Q6JJ9sSoSKRh09bPKdr+f7MOhkmcNnQMpu5vZqhF8FIOS1t0wZc44j0PaYUTaaAmH4ZrrQSA8tUpU1wq2AUKUIO9KjaTjd8w4acf+iYBMzRZooq/1b7Fv1Z5aPvS+Q73jm+74CEOY7coX37bEjsNsB4aTTltbEesY5kGoKYtFIQ90/BaUTq4WOEIjS+skaHWgg5MRYe8fV9a7W9U85pNDBqahf+M1FE1AQQfM09GGgKQ0SDQWkE0EpZC/3fKoNP/yQBVvaKT4DEJZ6NtxvgfsFZeSoIMPPCJt093IrtE8ZYYRpB+RCarSqvl9A2DLlzDst3euv1ywUNUMEi8iF3I8USB4m1DlJ2lGgrCNDazSBiDmKk0qV1T0Xqqq7vO6yu75U48z14dhTgJDX65l81nORjtYz7Ta2RkCnFZE1Iz0ZGwnePyoyqEI2TgdCvqKRpORwI+pOJWOblfLvjrzt+QGRrst1/LPHFYCwryNWOH6PH4HdDQjbZ56/1Ni2ZpwF8mVpAxYUCmJDDFtFylI41eyGQMhJsmrKWReXRbsXGwJe1YB0mQFkmQAIPxYAix01IwnN6mljVIpZnNKmeMVj6v5nXJZVbFkzY8yECu+G+4y4Tl1qzCJ0KKM4XkGdyQoxVAIhxccJhMnq/IHwZdgCfbPztb84g+2HxaEiQ+Yi+9tU/OF3GxG1xuDEjtUcxshgP1qtEB5PxYPF1WOGTH/qhf48EHsSEG648aLjyozBp+RQh9sf7kZEDTk8pMIZUVNMQddMJdVJF2TnKw3RbS98HpWSyqVl+467bFe1S2x7zwpA2J9ZXHjvHjkCuxsQrvvJD5ZWGwPjlEQAVkjYT2NxNrEPSySXdl8gfOPRa5xDPt70kCvsOSPq7ZJcRVYpEA8KFqGWgG6n6IcMCRkuo7nes9lgvWTEHTqwrLn+2AmVka77YIIk6pRJSKkxIkyoBELUGfEPGRFGFKAVd6KPsCZ/IHxr3gX7NYZDf9QC7VUmRNt+X1Cyud2SH32bJkTh1HO1gjmaABiyburHwt7jKn09VVp7dn9JHfkAISXWjBXDj9ldaoTZRWDdkiWa9snvfm6LdEwwpAKi1pxmjwTbXJAeFeltygSx/V7UCjl3VSliLW3xlVaPHTZ5cd4p5v4uRAUg7O8IFt6/x43A7gaEvinnLJX9G8YZEK0YTDZBEmHQQkd1Ri9fighdtR1Qljkm14b6wUiNZifFu9eedfgoW+JPye4mB3ooJDBmENCiFzKMDkhIbyXQIM8SoDEFoWXN/VKg7tsXN14309Px0+9f6Uj77pchTMkX/S8IhEmEaGyjMAIfaf8TB3DF3OW+RFV9zqLb207YdbeNO9/hb3sc+qIg9aB/EHqXCbiwK5Cxc5jjqVB3j8FEY1z2jOP70mXV0ibNfc3I6Q//sr+Tf08CQo7F+mnnHVYc2PCSIdbjZuo7LoQQkBLVu+uFzRIdW4yoFfL+pbHB6DC6H6/9zsU//F9FgzzvAhD2dyYX3r/HjQDIHqbmtxY/sruQZbquOXGJOdV5iUmhyihEplEnpHO60YT0IApZu2tqlBODUUL6nUfnNtjjE2PedmEnlACoxQBkCkAxkYSWKF2aZDBJVVuyIyaNG/qrvz0emvT9y6P+jgdM6DFjk4SuVKKnQhlZkE1Kqx4Kd0UBhPHq/ICQQNQ2+4xfJDwd1yiRhFTmLPWmFctnaz3d75eWOt40S/5GKeCbpMYVowrprygWcK+95JMux75H7TNtflt/J/+eBoQbFlwwtKxnw/+Zwp5qdEhIEdYGURM2J6gRK0khCHBzM2PJCCXEFE1qt9ZMGbZw2a39Hcv+vL8AhP0ZvcJ798gRIBB2vvXQI5aQZ6wBos/C7YAiwnhaqJkvVBSFb5z+MzYQo+k6qIweXS7/eFFooAel5yfHLbUgNZqEh1syhkgK0UoSdTKmnkSClLtrCluLkwExobiyc7NWe0yuqv2DGRFyLD6dfdG+lf71z6rBrmEaTH7hboSUJo2FqVCJZZL9gGi+J/HHbit5LxFJn5kyeI9Dv9kDJKwQ8EwiotDbJXiZBjih8z6wozLurPQnispqym5a7O/r2EMz02pr6VnoNBlLo7Hwnwyxog9tLrm1tPHENkYoLWB0WuXoLPgCYdOBhm+7W2rWiqbWz39mQV+/a3vH5wWE9rL/GCuHH7u7pUbFxgcu9hXdq/5pjgWqE9BrlVSHiLfYjkOVmTB9NBHZMyIUKW/Mh56KYZPrpj28cCDGM9/PKABhviNXeN8eOwLp5ctV//N3LbHF/BeFDX70z6E2lOTOlsFIVLDemJ7LGqYye2fRTOFOa0Njxfwn+h0lbDuw/muP+p0kh89IgVxCLUcDmupTbEhmsznaCDQjamXhgGQzQXaMjuvltc1rzMbjRkxdtkNR662/Y2dASOVIxJ8AWlowISIF0aW9qHqHyjI7mhSrrz3u5qFaaHYYVlIiEYVILxlPCecC6qTS55CizSSoGC3qnHQ60RWNB+9OiA0H/O54XTCA1fsaE6gtIqXKehNYnQlHlT/pLs8LCHc2idFkb2ld0fWALRa4mI3g0UBcctpqfBuK6/dtnPnr9QPxABAIA9cdPkNKRGayN1SXjfuiDZPYgGVsmBL4OwIgNFWN2G2BsLJn9T+TIV81VYAMKaim834La6YtG0qOHTeXBqNFarPWTG6c/2QBCAdiQhU+ozACAzUC7IPzvP7Iry2hnsvimu57Z8iIPqdpM0ONTzI1qXKC1I9BNkIUwx5rkYr3q77tqZUDdR7Zzwlfd/g/QOf/LkWsKVsmzExpw0S1f1LSqb2Jni3NiEgxyoWyZLV/1F4n117xq89yOZddAYRrbhozxJlqe9EaC3xLBqBHcB0agFtBTyGFtWN00cDJwqpHMpkM7bCqeC2cSoylbx370ExUeAEQstaURDN2BOxRUS+EPVPcWeVPFVUOOBC+sfDC2sZA19OGzpZDLYhgDTAbTsql8+3fbZhLN/tcxra3Y/ZUIIxHAtXcpxixUeGL+qJCJD4jERQHEzeNe6vAjaTFVjll2LxCarS3uVL4fWEEdukI0MG8ZfJpd7oCPdemEAeR8m2COy0BMQZHbh0YdbKGDCeFMGpLqtGa7impOr1+9hMvDuTJ8lwi1x+53pCI1aXjOBcBhGzJQlQEIEzJeqRqAfHE5/VKDnuxFHeVv/lhqnjMQfOWbMrlXHYFEPI81kw586ySQNOzTqQ147TfoeMA0qNp/DdibDAMkUKjSg/qgIocjUWSCVOMrCCMs4qI3Ih7IIAQPowxsEdTDJ0AjoMFhG9NHbPfEEPHX20hb6kcM0spU0m3x1Z24pA5S/+Ty7jmckzQYBzGAAAU3klEQVQBCAtAmMs8KRxTGIH/yQisvuHE6ZVR7xzh9Yf1luQM7mhFIzVt1KiRiAU6iijNUeSWuiAa7CupvXXEnGenDOQJb4IjQqm/6QNDMmqWaVwqpM/SiIpEohJAiBQjI0OAsxHya0mASdRR+Ycme/XF35pyP1S6e3/tKiBsh7O5um7Vg1Z/x9gUakUx5JQVADh2E7gGQCJrrQRDFmzgaZgExT6usraEDQcicupSiuZ6ROSU6BJ2TIg4Yq6K/2/vSoCkKu/8169fv+73+pz7vkATV6JmLSizRBMmUYMhhjIGsorJemyhG7IKiApDUE4xosGKZVKk2FDrridiDmvjJqkSjy1cCWFdD1YlwCDMADPT0zN9vn5H9/7+X88kFCWke3jSjfm6iuJ63e97v9fz/d7/+v0+lohwz6o51wTj+58P0Tp0jXnqz3k61HTpLa5bb3WsDiyIEPZWWhNSo8+K1Ohf/lEVRwgEziwCvfDWC48c3czVMECGPijrU3NGFk2L5ITgprko6uJArS4OMWx/TYgNKYFX1NAlsxrvegieNM68Dt0z+/pqPfqETH41qKdR1ETK/hQVUbOJR/IjW0qO8C42gohQQarJCLdv7u+a+d2pt946ZhJ36rUQEZ5Ma9SpGuH4Cg4suuaL7fLIVj2ZqFM1haWQ0s0hIiSxZqp/ehHhwcEJL0R8pK6JXBoCQa5KUnAxoP9DWhjET9qjedwHIkK7tbO5foGz0ly9PV9f7c8dWyFhTEX1tWb7XPVzz137s185c2cLnyKIUESETn6fxGcJBBxF4J17vnb1p+TMtkQi6VFAhAq0PWkAHBLQYxEKESFFYRJLZ+PMhcE2MxAZ7fO1zLngvp//zonFUEdj876+zWF96Do3pMYoLcqTiSAAIkIiRWRuudKMiZqhLxBkOV1iI96GpW0PFP+EfSaJkGY0o/+1/4dybPi7eTOJnhmQIIguhzk9Xu+EhJmb1z4LmpQWctA0hE2GPfQi53OqzxL29G/kdEBzhHZz14TnCD/qXvGxiruueCEbPzBLDYZYLjL5ZenT3VfXz13gqA7mJ40I9y//RkeTObBD1Aid2AHEZwgEyozAvgduvKA23vcfVmqkzUOt+ugapLkoiQxiSTKKm8ViI0azh6qRXFiSmRhrGA3X/0vt9I4Frq8+SnMXp/V6797vdNel+7dqerTGTe3mRMV5+BHyUYlC1wGvmSGYynotELLFQr56KyrVXdfx4NPPFXtyToSp4VfkxKByoui20xEhrWn36msumpTMbg8YiSrTpC5SPGCg4QhDEmBEIkJCl1Rc6MEDUSER4Vh/O6VHKRAvvBCj4896dZ3zRIjOYf13q/slI16XRofroVDHDRcuc94VgRMhjHmZmVpVSteoHGn+8kTGRYr9Tkz0OEGEE0VOvE8gUIEIDP7g5mAu2rdN0YevgAjUWIMMbGTQvUgpOt7SToPgIEbbgjA0pel8Koxn1eygWjt/0g+efPx0Luvt5YvbquwPHw9kj87wWog4kRol74acSwNtjBExhuwQn4JEDJaWDaRtPSwQnDwQ97fPaL7nkaK7V0smQn/j3HPX/WrrRK+PGoAO3D27J5QYWBOEODPiWa4ck8OMoM39BumBg0YGUB/kvouUBi3IyVHUWCBCOg5tTHggyEZqR63WSaclun3itRzo+epnG9OxXbKddA/6Arv/+DdTZ37h5kcdd0wXRChSoxP9ORLvEwicEQT23nV1T51xbJ2PpbBVk8gzfsH1gDdtqDS7l0CNjvZkNH5AdcTCRo5xd2Z6ArG4p2Zh1yTtKQzYF1WnO/6CdvXMv7jejN0b0Edme1wj2PIzPEKiZpJcHtEnTyNiHTTCAYIw4eCQ84IyIF4dk+p/2/mVxbNc3d0FbbIiXmTM25Huf8UdH+ARIXWl0gA0f+E85LYwPkeYcyvsaKBp7nmnQYT0sf+zcWGk+dAHr4b0gQtkRNOyP8AS6QzzhyP8d1qHIoPmuRRXwZy3sB4awS+QIK2NaoXpQGTEqruo1cna7JHlc5f4R/ZvCCLlfUSNXNu8fvvzRUBZ8iEfRYS8M5iLJYzpc9L1Y9TAxrWSHyHGY3a6wy2XV2pE2GwN7jAyCTE+UfK3QbxBIFCBCOxdvWhKl/ne9mTf+3WS5seIhMokEwkspEPJZdunIkIzMrxup0Mqin4Hk/DfDbeWtGXvzzIB/8bO+546iI3sTwm9k11qFCLVh/cMzW31qYvy/QfOV10YVaNxDcwukrs7r5NhbnG8g5LIwYVamgJSNi2dDFutD+WWf5iy8oknS4GzHERI69v7/Tlfb0wc2RrI60p8FB52SDHrFjpjVUr/kmMBYl/wHxH++PwZT4dyHKCgQ/OT+KX7Q44TYe+Sr22vzydmyFL2LSPymSsDyzc7LpTAeZ0P1E//PhS9V4+nRs96IswNvW6k4k1FzxFqDT2THVLqKeV7f/yxQllmosiJ933iEaAU3tDSWT+tMWK3pEF+Jo0vYBCYND7Jay2H2qFMSicgPgs2QfSSyUXeRd2O2KixYft8vg+Hs9bzUqB1e9SV2+dXqtIeXbGU0LA9lNGVgOX2pJjR5rHsS2TTmBNknoskPSNBooop6AQl+1ITpGvjF236RIRumMMSQXAiBF/ous4CXpUNeCI7D11y4YzpJQ57l4sIt29Z6Zvy/u8fV2L9c8J+FVyQAr9BEIB01RQF12UwH9K9VAclMuTaoiTHdiIRBiMxq+aCNqciwl2bNmnNB34TC7rSiql6l1VdtvChUiLsUn4wPooIx5VlThURSi2Tv+x0l2wp6z7ZsVQjbBZE6ASU4jMEApWDwL47vzWtyuz/pWznmtCcyWf14olhdDsiWoETAe/tR6oSiTwsmtJ3abjGj6Xx8Dcra7BguJql4GoQDNYauuGOSVI+CvOgHILI8Gg6WSvLLjWFiCgC14M85BnJCsgNJQ4TRrbgSe66kKOokOqSmKejtGhB4o0CI9AhGk1MSFklIm03d61+akup6JWLCGmdf1z1ravUY4efi7hzmhtRrWVCISfgZ8PZNAuFa5iRgig3KZT8iQgL0lwFlVWQItKFerDaUSJ86/4Ff1c12rcDfo+Dw6Hm7ilLH3u3VEyLPZ5rjSIilMYiwjzuJUWE/CHnZKlRf/UbUus5l1ciEZLWaFN8/w4RERb7DRDHCQTOAgRId3TgpR/3WLGBVSHK1hlkiIutGLUjaJ+gRqiikaXQ4AFfc+68TTYzVE+kepbi87FodIhVV/khNo2oLk8pVh9UYWymY+yiKqgwMwMzWHJdR+rVyCANiGgyY8O3DxuhG3OCnPBI45SPFRQkq2iEgE6bgoq/rVUxS2t64VhDwy0X3156Q0c5ifDXGKc4f3f0J8HYwE2anmQ+RL4Wmo8SmNt0IcqFwignQj5SMVYnLDj60AMIPQQgInaYCPc8fMd3arLD/4rU9uamafP+6eOKBvl9JSJceNlyyU6vkTEuQtkFIkJGoupUl+ZiAyfUCCudCEcOvG5kRhuLTo0KibWzYCcUS/yrR2DP8gUdfuvwY2oqOkujtJ2tMxckzlxQRyHjURd244LiCcYYsJHTSyb7GZAhmc5SV6fmgxN7NgNiC7N0BkZEAQ2sCmLMJmH6imP0DAhWweeRoDbUVUIelkwgOoJPH9XHEEHy2blCswhFiKRwg0F6VWNxOdK/Vwpe9/l1T746kZvFiTDZ97I7Oeg9U80yx6/z9fW3ddb173+1Ka+3aUacPJnQHoRxeiI7CHKT6wNPjSIOpLQzJ5CxuUJynyAizLWF2usXbHVkxq/3J4u+586kZ9mu8OLORQ8W3X07EeyJCGN3fr7HY+hriybCCm6W4RGhIMKJfBXEewQClY/AvvXzpgWOHtlcy+wLJTTIJNHpKGk03I6uRhuKKBbNF6J7lBr98CJtUtqk00h1yeA8Zg/xaNLnrgYZ+tgw0qvBSJgTaTYL5RKurkJqMYgA8BkpV4J5ETn6Mj7+WUSEBTUVtFSAICzIr+C0cKCQkomqhiUdq3+5aaIolpsIad3v3f3NhZ1GfKMSH8S1IqrWfAzBMaLeQpcoDdhTQhTJ5sIDAWfDQn1WD9Y4RoQ08P9/vaPfDqgN77fftOG1iWJayvuGF09fXioReho/dUWl2jAJIizl7otjBQJnGQK9K6/5Ur1u/zA70H9RpAqRWHIQ5rIF2S/FoPk2NM3wLCnmDUkKDaSWJDk2L4jLHILbOf5fR/QH+yEvSDQLYz4LWpkeuEbQlm5hsydyY15EOXmotCFFFjKhcQmHBeaihhnQAIjVotQpoibTo6TdvqrlDau3/ghdqX8uTJaIKxHhpMThl+XEAMbyEd2iRV9CtDrenEJapuQQYSIqy6NmORCGDdOaXzxb4mlOefiujfObWg72PV1njHzBbWe4YW9OwVwh5gtJ0q7Q1ceTopwIx2uk9O+6VjdsdkY6nIgId226pz2SH5w9uXrmZvgROuIw8ZdwGlh86XJVz6z1cAUdSrGT4wbFvHgiQtTP7bZwMygNbOFBKBOo/X1fuO2KqUt/SmoEFfWiiLB9uPf1TGakkXf6jmUwCpF8wbqskOSm0RdkPpAFOaI1L+taL9wnKupGisUIBE6FwLsr/v5vq/TE/QFbn8kyI0hnIlJDN6mHpL+wSdGmJYPYDN1E16ePJUF2bnSZerCnWUYWs3FIfdIx2CWyGUSIcoAZ6Ej1Bmh0AM0xIDu3IrEkZhSDSHtKaWwZCBFlr5elMlC4CYQwOC+z0TwbsIP1iyd13/LM6dawdq246ZIp6YPbfXpc1U3UqUB8mt8Loek0aliQl/N54bCBc8M2iYjpkK9+7nkbfj7hgfqT4fvuynk3NCWPbgkbCTmvo26KFLGJfLOFTl16AKAZOt5RyccpeOyMLKrN0v7qqN55fqcTzSPvPzb/UsmjdZ07/5F/O1M/CR/e2d1TnUquIz1ZSfOwDITcManKa8V5jJP4VA+arUbxMIJGKSmACLh+54FQ3ZUVSYQrb+vsgB+hpUeb3RBMR+sYJ0AuWk+NTbgGerCRUDagGqIPPw+xYMuy+nXbhEP9mfrCifMIBJxA4PD9CzBRcXhVlSt7gz16JFwTCbL48DD8ABWQHwiEIj1EfdjJ0EGKmUJy7qVnYZCcjCd808zA0R6NNCA0CvOMFAbmNS+zUHNMYoTAi8/wUgSWSjOVNj9sGjpCRUPRWFYLsVGX5w+2v/bu81ZsfsmJ63ln/Y3T2o/1vuRLDAUkdK5C0prZ2JRdNB4CBjdh/yS5VdgmISpBq2s81DKnY/3WoiXcil3jf/9oXqjlWPrpQGrgKiUdQxoZ0RBSxhQFkVgBaI9vq256kEAzCYkM2NBgzYYaokZ7DYjw9GuE7zxy27WGlR+8eMmmCdVbi73W44/rXdTd05Iz18loEho141xUIDYMo2XcC3yR8B0CMaIIrRuQ+XMjnV7T8cYHWugrFUmEqPd2ZgZeM472tlrQ582rPk6AfjxgESGmyCEFDzZurilLqX2LHQnX333OA7/eMBHsnHqPmCN0CknxOX9VCMC8V9n71rYrI9nojaqZvBJdjcE8/PVM1PsUzMBxXWjy1QORUYaIRiEKOp5IoyJVamYxKqBn0SgDM10cmyHtUGwaREKU9vODRO0UZgmpEQcEa3qDbERW3zyiqE8kGj/95KX//GC/U4C/vfbbU9viR3Z4kjHkaTHPh/NbSE96kaLNYXO2LESFOL9hQvIMaxkOt8Oh/t8dTY2OX8tbS+de3siSz6lWKmyhjipTQxJNqVDjDD1McFk7+D+iaYn+zSBZO60heei8rpbP3fAoOm1O77X74TuubW0zf1M/11kni1Ot6tiSGfcFU8mVVHvOQaQBMOOhCg8kyBQopCSDhiqqM3NHdxbAg1DwzWMNtV+C9mlRNlunh0hp7z64/vpJ4aFjb7B0rFaDMEIaBEgdvxquhbu3SAruG/UCk1IO7q3fz44Ga5ZNvvcZERGWBrU4WiBQOQjkNyzxfzDw9sVuI3u95pXnSNl0jYpIxgXrHhqpp83MwoiDHz/wFBlS2jSTQYcoUkIKokIL0aGMWhiZ1FJ9TkLNJIsBeaoRaVqAV4uiKWO7p6pxS645+Err7U8cdvrqX14xb1qLGX0xYtqRuIlkZB5hq2xKspzL2wgDvUjxIkNHboEuEyXRqC/8zWnrnt3m9Dro8/CA4X5z9zMPB7Lx+WG00eZQKyw4TaBPFiKv9JBAESHmCvO0kSZk1XU0rx3Uuzo+0+2ADdP2jXd9tnvRhjc/jmv7qM+krtHdd3yxp82trFXyhplgpsuyc3lNDkk2IkCq1aohr2s0E2Uerw/9Vm5ZqWnfOegNzyzWb/JMXQud53/X/GOXPz3w27BkT0olMDKLdDqJP2hmNi8jo4BvFZIgbh4TWiD5UVcuNxRo7fncmi0Pncl1nnguERGWE31x7k8MAqRCs3P996qqU4dmKsbw7KBtTJfNRDDoQ3hoYPgP7Z5ZPB2bGI/wqH40yqADFLmhvAdNIdjsIt6Ajbqimcu7DdnnTyct156U5n9h1B/4T6Nmxr5ivQUnAihtxuzF2xX2It591Z8/4UX8/arxvx/3f044a5xqnYQl1lMYmCzmlbwsj8YWGDaena+TXu8J92P86v5wKJubOgEN2zOFDmVLWOC14rkleZmF+0e507K9il9s2ZYoTiwQOLsQyD87xx0/zMKpmNnFMvF2M52tD/lDDSkjG/EoqqZb0EPBj73kVbIpd0aXPK4hhAExxfYMVgXqD6VzxsGmpuDoRAS7zy6kxGoFApWBgCDCyrgPYhUCAYGAQEAgUCYEBBGWCXhxWoGAQEAgIBCoDAQEEVbGfRCrEAgIBAQCAoEyISCIsEzAi9MKBAQCAgGBQGUgIIiwMu6DWIVAQCAgEBAIlAkBQYRlAl6cViAgEBAICAQqAwFBhJVxH8QqBAICAYGAQKBMCAgiLBPw4rQCAYGAQEAgUBkICCKsjPsgViEQEAgIBAQCZUJAEGGZgBenFQgIBAQCAoHKQEAQYWXcB7EKgYBAQCAgECgTAoIIywS8OK1AQCAgEBAIVAYCgggr4z6IVQgEBAICAYFAmRAQRFgm4MVpBQICAYGAQKAyEBBEWBn3QaxCICAQEAgIBMqEwP8DD2e2NmCygFcAAAAASUVORK5CYII=;" vertex="1" parent="1">
          <mxGeometry x="671.8100000000001" y="710" width="136.37" height="50" as="geometry" />
        </mxCell>
      </root>
    </mxGraphModel>
  </diagram>
</mxfile>
